G04 #@! TF.GenerationSoftware,KiCad,Pcbnew,(6.0.7)*
G04 #@! TF.CreationDate,2022-08-26T23:00:58+02:00*
G04 #@! TF.ProjectId,a1200_pwr,61313230-305f-4707-9772-2e6b69636164,2*
G04 #@! TF.SameCoordinates,Original*
G04 #@! TF.FileFunction,Soldermask,Bot*
G04 #@! TF.FilePolarity,Negative*
%FSLAX46Y46*%
G04 Gerber Fmt 4.6, Leading zero omitted, Abs format (unit mm)*
G04 Created by KiCad (PCBNEW (6.0.7)) date 2022-08-26 23:00:58*
%MOMM*%
%LPD*%
G01*
G04 APERTURE LIST*
G04 Aperture macros list*
%AMRoundRect*
0 Rectangle with rounded corners*
0 $1 Rounding radius*
0 $2 $3 $4 $5 $6 $7 $8 $9 X,Y pos of 4 corners*
0 Add a 4 corners polygon primitive as box body*
4,1,4,$2,$3,$4,$5,$6,$7,$8,$9,$2,$3,0*
0 Add four circle primitives for the rounded corners*
1,1,$1+$1,$2,$3*
1,1,$1+$1,$4,$5*
1,1,$1+$1,$6,$7*
1,1,$1+$1,$8,$9*
0 Add four rect primitives between the rounded corners*
20,1,$1+$1,$2,$3,$4,$5,0*
20,1,$1+$1,$4,$5,$6,$7,0*
20,1,$1+$1,$6,$7,$8,$9,0*
20,1,$1+$1,$8,$9,$2,$3,0*%
G04 Aperture macros list end*
%ADD10RoundRect,0.051000X-2.100000X-1.000000X2.100000X-1.000000X2.100000X1.000000X-2.100000X1.000000X0*%
%ADD11RoundRect,0.051000X-1.000000X-2.100000X1.000000X-2.100000X1.000000X2.100000X-1.000000X2.100000X0*%
%ADD12C,3.277000*%
%ADD13C,2.388000*%
%ADD14RoundRect,0.051000X-0.800000X0.800000X-0.800000X-0.800000X0.800000X-0.800000X0.800000X0.800000X0*%
%ADD15C,1.702000*%
%ADD16C,1.802000*%
G04 APERTURE END LIST*
D10*
X146128883Y-87436955D03*
X146128883Y-81436955D03*
D11*
X141428883Y-84436955D03*
D12*
X143631883Y-110394355D03*
X148761883Y-110394355D03*
X153891883Y-110394355D03*
X159021883Y-110394355D03*
D13*
X147987883Y-82985355D03*
X150476883Y-82985355D03*
X152965883Y-82985355D03*
D14*
X151010283Y-91011755D03*
D15*
X151010283Y-93511755D03*
D16*
X155528883Y-89184355D03*
X155528883Y-91724355D03*
X155528883Y-94264355D03*
X155528883Y-84104355D03*
G36*
X149366871Y-82554782D02*
G01*
X149367143Y-82556522D01*
X149310939Y-82737526D01*
X149285300Y-82954150D01*
X149299567Y-83171828D01*
X149352653Y-83380852D01*
X149352111Y-83382777D01*
X149350172Y-83383269D01*
X149349007Y-83382385D01*
X149315063Y-83326696D01*
X149252766Y-83296435D01*
X149183997Y-83304656D01*
X149130493Y-83348833D01*
X149113532Y-83385972D01*
X149111360Y-83394080D01*
X149111241Y-83394407D01*
X149094752Y-83429767D01*
X149093113Y-83430914D01*
X149091301Y-83430069D01*
X149091045Y-83428279D01*
X149146941Y-83263618D01*
X149178251Y-83047674D01*
X149179881Y-82985427D01*
X149159914Y-82768131D01*
X149104217Y-82570644D01*
X149104709Y-82568705D01*
X149106634Y-82568163D01*
X149107955Y-82569256D01*
X149111241Y-82576303D01*
X149111360Y-82576630D01*
X149113501Y-82584620D01*
X149149703Y-82644014D01*
X149212000Y-82674275D01*
X149280769Y-82666054D01*
X149334273Y-82621877D01*
X149351234Y-82584738D01*
X149353406Y-82576630D01*
X149353525Y-82576303D01*
X149363420Y-82555084D01*
X149365059Y-82553937D01*
X149366871Y-82554782D01*
G37*
G36*
X151855871Y-82554782D02*
G01*
X151856143Y-82556522D01*
X151799939Y-82737526D01*
X151774300Y-82954150D01*
X151788567Y-83171828D01*
X151841653Y-83380852D01*
X151841111Y-83382777D01*
X151839172Y-83383269D01*
X151838007Y-83382385D01*
X151804063Y-83326696D01*
X151741766Y-83296435D01*
X151672997Y-83304656D01*
X151619493Y-83348833D01*
X151602532Y-83385972D01*
X151600360Y-83394080D01*
X151600241Y-83394407D01*
X151583752Y-83429767D01*
X151582113Y-83430914D01*
X151580301Y-83430069D01*
X151580045Y-83428279D01*
X151635941Y-83263618D01*
X151667251Y-83047674D01*
X151668881Y-82985427D01*
X151648914Y-82768131D01*
X151593217Y-82570644D01*
X151593709Y-82568705D01*
X151595634Y-82568163D01*
X151596955Y-82569256D01*
X151600241Y-82576303D01*
X151600360Y-82576630D01*
X151602501Y-82584620D01*
X151638703Y-82644014D01*
X151701000Y-82674275D01*
X151769769Y-82666054D01*
X151823273Y-82621877D01*
X151840234Y-82584738D01*
X151842406Y-82576630D01*
X151842525Y-82576303D01*
X151852420Y-82555084D01*
X151854059Y-82553937D01*
X151855871Y-82554782D01*
G37*
M02*
