G04 #@! TF.GenerationSoftware,KiCad,Pcbnew,5.1.9*
G04 #@! TF.CreationDate,2021-01-04T19:20:29+01:00*
G04 #@! TF.ProjectId,a1200_pwr,61313230-305f-4707-9772-2e6b69636164,1*
G04 #@! TF.SameCoordinates,Original*
G04 #@! TF.FileFunction,Legend,Top*
G04 #@! TF.FilePolarity,Positive*
%FSLAX46Y46*%
G04 Gerber Fmt 4.6, Leading zero omitted, Abs format (unit mm)*
G04 Created by KiCad (PCBNEW 5.1.9) date 2021-01-04 19:20:29*
%MOMM*%
%LPD*%
G01*
G04 APERTURE LIST*
%ADD10C,0.203200*%
%ADD11C,0.150000*%
%ADD12C,0.177800*%
%ADD13C,0.100000*%
%ADD14C,0.500000*%
%ADD15C,0.120000*%
G04 APERTURE END LIST*
D10*
X152760561Y-88950195D02*
X152427228Y-88563147D01*
X152189133Y-88950195D02*
X152189133Y-88137395D01*
X152570085Y-88137395D01*
X152665323Y-88176100D01*
X152712942Y-88214804D01*
X152760561Y-88292214D01*
X152760561Y-88408328D01*
X152712942Y-88485738D01*
X152665323Y-88524442D01*
X152570085Y-88563147D01*
X152189133Y-88563147D01*
X153570085Y-88911490D02*
X153474847Y-88950195D01*
X153284371Y-88950195D01*
X153189133Y-88911490D01*
X153141514Y-88834080D01*
X153141514Y-88524442D01*
X153189133Y-88447033D01*
X153284371Y-88408328D01*
X153474847Y-88408328D01*
X153570085Y-88447033D01*
X153617704Y-88524442D01*
X153617704Y-88601852D01*
X153141514Y-88679261D01*
X153951038Y-88408328D02*
X154189133Y-88950195D01*
X154427228Y-88408328D01*
X154808180Y-88872785D02*
X154855800Y-88911490D01*
X154808180Y-88950195D01*
X154760561Y-88911490D01*
X154808180Y-88872785D01*
X154808180Y-88950195D01*
X156570085Y-88950195D02*
X155998657Y-88950195D01*
X156284371Y-88950195D02*
X156284371Y-88137395D01*
X156189133Y-88253509D01*
X156093895Y-88330919D01*
X155998657Y-88369623D01*
X145545628Y-94877466D02*
X145932676Y-94877466D01*
X145468219Y-95109695D02*
X145739152Y-94296895D01*
X146010085Y-95109695D01*
X146706771Y-95109695D02*
X146242314Y-95109695D01*
X146474542Y-95109695D02*
X146474542Y-94296895D01*
X146397133Y-94413009D01*
X146319723Y-94490419D01*
X146242314Y-94529123D01*
X147016409Y-94374304D02*
X147055114Y-94335600D01*
X147132523Y-94296895D01*
X147326047Y-94296895D01*
X147403457Y-94335600D01*
X147442161Y-94374304D01*
X147480866Y-94451714D01*
X147480866Y-94529123D01*
X147442161Y-94645238D01*
X146977704Y-95109695D01*
X147480866Y-95109695D01*
X147984028Y-94296895D02*
X148061438Y-94296895D01*
X148138847Y-94335600D01*
X148177552Y-94374304D01*
X148216257Y-94451714D01*
X148254961Y-94606533D01*
X148254961Y-94800057D01*
X148216257Y-94954876D01*
X148177552Y-95032285D01*
X148138847Y-95070990D01*
X148061438Y-95109695D01*
X147984028Y-95109695D01*
X147906619Y-95070990D01*
X147867914Y-95032285D01*
X147829209Y-94954876D01*
X147790504Y-94800057D01*
X147790504Y-94606533D01*
X147829209Y-94451714D01*
X147867914Y-94374304D01*
X147906619Y-94335600D01*
X147984028Y-94296895D01*
X148758123Y-94296895D02*
X148835533Y-94296895D01*
X148912942Y-94335600D01*
X148951647Y-94374304D01*
X148990352Y-94451714D01*
X149029057Y-94606533D01*
X149029057Y-94800057D01*
X148990352Y-94954876D01*
X148951647Y-95032285D01*
X148912942Y-95070990D01*
X148835533Y-95109695D01*
X148758123Y-95109695D01*
X148680714Y-95070990D01*
X148642009Y-95032285D01*
X148603304Y-94954876D01*
X148564600Y-94800057D01*
X148564600Y-94606533D01*
X148603304Y-94451714D01*
X148642009Y-94374304D01*
X148680714Y-94335600D01*
X148758123Y-94296895D01*
X149957971Y-95070990D02*
X150035380Y-95109695D01*
X150190200Y-95109695D01*
X150267609Y-95070990D01*
X150306314Y-94993580D01*
X150306314Y-94954876D01*
X150267609Y-94877466D01*
X150190200Y-94838761D01*
X150074085Y-94838761D01*
X149996676Y-94800057D01*
X149957971Y-94722647D01*
X149957971Y-94683942D01*
X149996676Y-94606533D01*
X150074085Y-94567828D01*
X150190200Y-94567828D01*
X150267609Y-94606533D01*
X150654657Y-95109695D02*
X150654657Y-94567828D01*
X150654657Y-94296895D02*
X150615952Y-94335600D01*
X150654657Y-94374304D01*
X150693361Y-94335600D01*
X150654657Y-94296895D01*
X150654657Y-94374304D01*
X151041704Y-94567828D02*
X151041704Y-95109695D01*
X151041704Y-94645238D02*
X151080409Y-94606533D01*
X151157819Y-94567828D01*
X151273933Y-94567828D01*
X151351342Y-94606533D01*
X151390047Y-94683942D01*
X151390047Y-95109695D01*
X152125438Y-94567828D02*
X152125438Y-95225809D01*
X152086733Y-95303219D01*
X152048028Y-95341923D01*
X151970619Y-95380628D01*
X151854504Y-95380628D01*
X151777095Y-95341923D01*
X152125438Y-95070990D02*
X152048028Y-95109695D01*
X151893209Y-95109695D01*
X151815800Y-95070990D01*
X151777095Y-95032285D01*
X151738390Y-94954876D01*
X151738390Y-94722647D01*
X151777095Y-94645238D01*
X151815800Y-94606533D01*
X151893209Y-94567828D01*
X152048028Y-94567828D01*
X152125438Y-94606533D01*
X152628600Y-95109695D02*
X152551190Y-95070990D01*
X152512485Y-94993580D01*
X152512485Y-94296895D01*
X153247876Y-95070990D02*
X153170466Y-95109695D01*
X153015647Y-95109695D01*
X152938238Y-95070990D01*
X152899533Y-94993580D01*
X152899533Y-94683942D01*
X152938238Y-94606533D01*
X153015647Y-94567828D01*
X153170466Y-94567828D01*
X153247876Y-94606533D01*
X153286580Y-94683942D01*
X153286580Y-94761352D01*
X152899533Y-94838761D01*
X154254200Y-95109695D02*
X154254200Y-94296895D01*
X154563838Y-94296895D01*
X154641247Y-94335600D01*
X154679952Y-94374304D01*
X154718657Y-94451714D01*
X154718657Y-94567828D01*
X154679952Y-94645238D01*
X154641247Y-94683942D01*
X154563838Y-94722647D01*
X154254200Y-94722647D01*
X154989590Y-94296895D02*
X155183114Y-95109695D01*
X155337933Y-94529123D01*
X155492752Y-95109695D01*
X155686276Y-94296895D01*
X156460371Y-95109695D02*
X156189438Y-94722647D01*
X155995914Y-95109695D02*
X155995914Y-94296895D01*
X156305552Y-94296895D01*
X156382961Y-94335600D01*
X156421666Y-94374304D01*
X156460371Y-94451714D01*
X156460371Y-94567828D01*
X156421666Y-94645238D01*
X156382961Y-94683942D01*
X156305552Y-94722647D01*
X155995914Y-94722647D01*
D11*
X134958100Y-75333100D02*
X135758100Y-74533100D01*
X134938100Y-86713100D02*
X134938100Y-74523100D01*
X134938100Y-74523100D02*
X147138100Y-74523100D01*
X147138100Y-86713100D02*
X147138100Y-74523100D01*
X134938100Y-86713100D02*
X147138100Y-86713100D01*
D12*
X139304900Y-111193500D02*
X139304900Y-112493500D01*
X139304900Y-114793500D02*
X139304900Y-114993500D01*
X135954900Y-114793500D02*
X135954900Y-114993500D01*
X135954900Y-111193500D02*
X135954900Y-111393500D01*
D13*
X136079900Y-111143500D02*
X139179900Y-111143500D01*
X136079900Y-115043500D02*
X139179900Y-115043500D01*
X139179900Y-111143500D02*
X139179900Y-115043500D01*
X136079900Y-111143500D02*
X136079900Y-115043500D01*
D14*
X138919900Y-112229900D02*
G75*
G03*
X138919900Y-112229900I-90000J0D01*
G01*
D11*
X153642000Y-61240800D02*
X148562000Y-61240800D01*
X153642000Y-70334000D02*
X153642000Y-61240800D01*
X153642000Y-70334000D02*
X152118000Y-70334000D01*
X148562000Y-70334000D02*
X149959000Y-70334000D01*
X148562000Y-61240800D02*
X148562000Y-70334000D01*
D13*
X146302000Y-62086600D02*
X146302000Y-61086600D01*
X137102000Y-62086600D02*
X137102000Y-61086600D01*
X146302000Y-54786600D02*
X146302000Y-55286600D01*
X146302000Y-54786600D02*
X145802000Y-54786600D01*
X137102000Y-54786600D02*
X137602000Y-54786600D01*
X137102000Y-54786600D02*
X137102000Y-55286600D01*
X140502000Y-63786600D02*
X142902000Y-63786600D01*
X137102000Y-69386600D02*
X137102000Y-68886600D01*
X137102000Y-69386600D02*
X137602000Y-69386600D01*
X146302000Y-69386600D02*
X146302000Y-68886600D01*
X146302000Y-69386600D02*
X145802000Y-69386600D01*
D15*
X143927100Y-97345500D02*
G75*
G03*
X143927100Y-97345500I-4090000J0D01*
G01*
X139837100Y-93295500D02*
X139837100Y-101395500D01*
X139877100Y-93295500D02*
X139877100Y-101395500D01*
X139917100Y-93295500D02*
X139917100Y-101395500D01*
X139957100Y-93296500D02*
X139957100Y-101394500D01*
X139997100Y-93298500D02*
X139997100Y-101392500D01*
X140037100Y-93299500D02*
X140037100Y-101391500D01*
X140077100Y-93302500D02*
X140077100Y-101388500D01*
X140117100Y-93304500D02*
X140117100Y-101386500D01*
X140157100Y-93307500D02*
X140157100Y-101383500D01*
X140197100Y-93310500D02*
X140197100Y-101380500D01*
X140237100Y-93314500D02*
X140237100Y-101376500D01*
X140277100Y-93318500D02*
X140277100Y-101372500D01*
X140317100Y-93323500D02*
X140317100Y-101367500D01*
X140357100Y-93328500D02*
X140357100Y-101362500D01*
X140397100Y-93333500D02*
X140397100Y-101357500D01*
X140437100Y-93339500D02*
X140437100Y-101351500D01*
X140477100Y-93345500D02*
X140477100Y-101345500D01*
X140517100Y-93351500D02*
X140517100Y-101339500D01*
X140558100Y-93358500D02*
X140558100Y-101332500D01*
X140598100Y-93366500D02*
X140598100Y-101324500D01*
X140638100Y-93374500D02*
X140638100Y-96365500D01*
X140638100Y-98325500D02*
X140638100Y-101316500D01*
X140678100Y-93382500D02*
X140678100Y-96365500D01*
X140678100Y-98325500D02*
X140678100Y-101308500D01*
X140718100Y-93390500D02*
X140718100Y-96365500D01*
X140718100Y-98325500D02*
X140718100Y-101300500D01*
X140758100Y-93399500D02*
X140758100Y-96365500D01*
X140758100Y-98325500D02*
X140758100Y-101291500D01*
X140798100Y-93409500D02*
X140798100Y-96365500D01*
X140798100Y-98325500D02*
X140798100Y-101281500D01*
X140838100Y-93419500D02*
X140838100Y-96365500D01*
X140838100Y-98325500D02*
X140838100Y-101271500D01*
X140878100Y-93429500D02*
X140878100Y-96365500D01*
X140878100Y-98325500D02*
X140878100Y-101261500D01*
X140918100Y-93440500D02*
X140918100Y-96365500D01*
X140918100Y-98325500D02*
X140918100Y-101250500D01*
X140958100Y-93451500D02*
X140958100Y-96365500D01*
X140958100Y-98325500D02*
X140958100Y-101239500D01*
X140998100Y-93462500D02*
X140998100Y-96365500D01*
X140998100Y-98325500D02*
X140998100Y-101228500D01*
X141038100Y-93475500D02*
X141038100Y-96365500D01*
X141038100Y-98325500D02*
X141038100Y-101215500D01*
X141078100Y-93487500D02*
X141078100Y-96365500D01*
X141078100Y-98325500D02*
X141078100Y-101203500D01*
X141118100Y-93500500D02*
X141118100Y-96365500D01*
X141118100Y-98325500D02*
X141118100Y-101190500D01*
X141158100Y-93513500D02*
X141158100Y-96365500D01*
X141158100Y-98325500D02*
X141158100Y-101177500D01*
X141198100Y-93527500D02*
X141198100Y-96365500D01*
X141198100Y-98325500D02*
X141198100Y-101163500D01*
X141238100Y-93542500D02*
X141238100Y-96365500D01*
X141238100Y-98325500D02*
X141238100Y-101148500D01*
X141278100Y-93556500D02*
X141278100Y-96365500D01*
X141278100Y-98325500D02*
X141278100Y-101134500D01*
X141318100Y-93572500D02*
X141318100Y-96365500D01*
X141318100Y-98325500D02*
X141318100Y-101118500D01*
X141358100Y-93587500D02*
X141358100Y-96365500D01*
X141358100Y-98325500D02*
X141358100Y-101103500D01*
X141398100Y-93604500D02*
X141398100Y-96365500D01*
X141398100Y-98325500D02*
X141398100Y-101086500D01*
X141438100Y-93620500D02*
X141438100Y-96365500D01*
X141438100Y-98325500D02*
X141438100Y-101070500D01*
X141478100Y-93638500D02*
X141478100Y-96365500D01*
X141478100Y-98325500D02*
X141478100Y-101052500D01*
X141518100Y-93655500D02*
X141518100Y-96365500D01*
X141518100Y-98325500D02*
X141518100Y-101035500D01*
X141558100Y-93674500D02*
X141558100Y-96365500D01*
X141558100Y-98325500D02*
X141558100Y-101016500D01*
X141598100Y-93693500D02*
X141598100Y-96365500D01*
X141598100Y-98325500D02*
X141598100Y-100997500D01*
X141638100Y-93712500D02*
X141638100Y-96365500D01*
X141638100Y-98325500D02*
X141638100Y-100978500D01*
X141678100Y-93732500D02*
X141678100Y-96365500D01*
X141678100Y-98325500D02*
X141678100Y-100958500D01*
X141718100Y-93752500D02*
X141718100Y-96365500D01*
X141718100Y-98325500D02*
X141718100Y-100938500D01*
X141758100Y-93773500D02*
X141758100Y-96365500D01*
X141758100Y-98325500D02*
X141758100Y-100917500D01*
X141798100Y-93795500D02*
X141798100Y-96365500D01*
X141798100Y-98325500D02*
X141798100Y-100895500D01*
X141838100Y-93817500D02*
X141838100Y-96365500D01*
X141838100Y-98325500D02*
X141838100Y-100873500D01*
X141878100Y-93840500D02*
X141878100Y-96365500D01*
X141878100Y-98325500D02*
X141878100Y-100850500D01*
X141918100Y-93863500D02*
X141918100Y-96365500D01*
X141918100Y-98325500D02*
X141918100Y-100827500D01*
X141958100Y-93887500D02*
X141958100Y-96365500D01*
X141958100Y-98325500D02*
X141958100Y-100803500D01*
X141998100Y-93911500D02*
X141998100Y-96365500D01*
X141998100Y-98325500D02*
X141998100Y-100779500D01*
X142038100Y-93937500D02*
X142038100Y-96365500D01*
X142038100Y-98325500D02*
X142038100Y-100753500D01*
X142078100Y-93962500D02*
X142078100Y-96365500D01*
X142078100Y-98325500D02*
X142078100Y-100728500D01*
X142118100Y-93989500D02*
X142118100Y-96365500D01*
X142118100Y-98325500D02*
X142118100Y-100701500D01*
X142158100Y-94016500D02*
X142158100Y-96365500D01*
X142158100Y-98325500D02*
X142158100Y-100674500D01*
X142198100Y-94044500D02*
X142198100Y-96365500D01*
X142198100Y-98325500D02*
X142198100Y-100646500D01*
X142238100Y-94073500D02*
X142238100Y-96365500D01*
X142238100Y-98325500D02*
X142238100Y-100617500D01*
X142278100Y-94102500D02*
X142278100Y-96365500D01*
X142278100Y-98325500D02*
X142278100Y-100588500D01*
X142318100Y-94132500D02*
X142318100Y-96365500D01*
X142318100Y-98325500D02*
X142318100Y-100558500D01*
X142358100Y-94163500D02*
X142358100Y-96365500D01*
X142358100Y-98325500D02*
X142358100Y-100527500D01*
X142398100Y-94195500D02*
X142398100Y-96365500D01*
X142398100Y-98325500D02*
X142398100Y-100495500D01*
X142438100Y-94227500D02*
X142438100Y-96365500D01*
X142438100Y-98325500D02*
X142438100Y-100463500D01*
X142478100Y-94261500D02*
X142478100Y-96365500D01*
X142478100Y-98325500D02*
X142478100Y-100429500D01*
X142518100Y-94295500D02*
X142518100Y-96365500D01*
X142518100Y-98325500D02*
X142518100Y-100395500D01*
X142558100Y-94330500D02*
X142558100Y-96365500D01*
X142558100Y-98325500D02*
X142558100Y-100360500D01*
X142598100Y-94366500D02*
X142598100Y-100324500D01*
X142638100Y-94403500D02*
X142638100Y-100287500D01*
X142678100Y-94441500D02*
X142678100Y-100249500D01*
X142718100Y-94480500D02*
X142718100Y-100210500D01*
X142758100Y-94521500D02*
X142758100Y-100169500D01*
X142798100Y-94562500D02*
X142798100Y-100128500D01*
X142838100Y-94605500D02*
X142838100Y-100085500D01*
X142878100Y-94648500D02*
X142878100Y-100042500D01*
X142918100Y-94693500D02*
X142918100Y-99997500D01*
X142958100Y-94740500D02*
X142958100Y-99950500D01*
X142998100Y-94788500D02*
X142998100Y-99902500D01*
X143038100Y-94837500D02*
X143038100Y-99853500D01*
X143078100Y-94888500D02*
X143078100Y-99802500D01*
X143118100Y-94941500D02*
X143118100Y-99749500D01*
X143158100Y-94996500D02*
X143158100Y-99694500D01*
X143198100Y-95052500D02*
X143198100Y-99638500D01*
X143238100Y-95111500D02*
X143238100Y-99579500D01*
X143278100Y-95172500D02*
X143278100Y-99518500D01*
X143318100Y-95236500D02*
X143318100Y-99454500D01*
X143358100Y-95302500D02*
X143358100Y-99388500D01*
X143398100Y-95371500D02*
X143398100Y-99319500D01*
X143438100Y-95443500D02*
X143438100Y-99247500D01*
X143478100Y-95519500D02*
X143478100Y-99171500D01*
X143518100Y-95600500D02*
X143518100Y-99090500D01*
X143558100Y-95685500D02*
X143558100Y-99005500D01*
X143598100Y-95775500D02*
X143598100Y-98915500D01*
X143638100Y-95872500D02*
X143638100Y-98818500D01*
X143678100Y-95976500D02*
X143678100Y-98714500D01*
X143718100Y-96091500D02*
X143718100Y-98599500D01*
X143758100Y-96218500D02*
X143758100Y-98472500D01*
X143798100Y-96362500D02*
X143798100Y-98328500D01*
X143838100Y-96531500D02*
X143838100Y-98159500D01*
X143878100Y-96747500D02*
X143878100Y-97943500D01*
X143918100Y-97099500D02*
X143918100Y-97591500D01*
X135887100Y-97345500D02*
X137087100Y-97345500D01*
X136487100Y-96695500D02*
X136487100Y-97995500D01*
D11*
X147737400Y-86653200D02*
X149239400Y-86653200D01*
X151039400Y-86653200D02*
X152442400Y-86653200D01*
X152442400Y-86653200D02*
X152442400Y-78853200D01*
X152439400Y-78853200D02*
X151039400Y-78853200D01*
X149239400Y-78853200D02*
X147739400Y-78853200D01*
X147737400Y-78853200D02*
X147737400Y-86653200D01*
D15*
X154842400Y-75942700D02*
X154842400Y-73942700D01*
X152802400Y-73942700D02*
X152802400Y-75942700D01*
X142916400Y-89094500D02*
X144916400Y-89094500D01*
X144916400Y-87054500D02*
X142916400Y-87054500D01*
X153336700Y-85059000D02*
X153336700Y-84359000D01*
X154536700Y-84359000D02*
X154536700Y-85059000D01*
X153311300Y-80944200D02*
X153311300Y-80244200D01*
X154511300Y-80244200D02*
X154511300Y-80944200D01*
X144090800Y-70482200D02*
X140490800Y-70482200D01*
X140490800Y-73942200D02*
X144090800Y-73942200D01*
X139849300Y-113049800D02*
X139849300Y-112349800D01*
X141049300Y-112349800D02*
X141049300Y-113049800D01*
X137267200Y-115820900D02*
X137967200Y-115820900D01*
X137967200Y-117020900D02*
X137267200Y-117020900D01*
X141644100Y-117633200D02*
X144944100Y-117633200D01*
X144944100Y-117633200D02*
X144944100Y-110733200D01*
X141644100Y-117633200D02*
X141644100Y-110733200D01*
X140725400Y-106358500D02*
X138725400Y-106358500D01*
X138725400Y-108398500D02*
X140725400Y-108398500D01*
X140738100Y-104072500D02*
X138738100Y-104072500D01*
X138738100Y-106112500D02*
X140738100Y-106112500D01*
X139057000Y-108789100D02*
X138057000Y-108789100D01*
X138057000Y-110489100D02*
X139057000Y-110489100D01*
X140738100Y-101773800D02*
X138738100Y-101773800D01*
X138738100Y-103813800D02*
X140738100Y-103813800D01*
D11*
X135382095Y-73035480D02*
X135382095Y-73845004D01*
X135429714Y-73940242D01*
X135477333Y-73987861D01*
X135572571Y-74035480D01*
X135763047Y-74035480D01*
X135858285Y-73987861D01*
X135905904Y-73940242D01*
X135953523Y-73845004D01*
X135953523Y-73035480D01*
X136382095Y-73130719D02*
X136429714Y-73083100D01*
X136524952Y-73035480D01*
X136763047Y-73035480D01*
X136858285Y-73083100D01*
X136905904Y-73130719D01*
X136953523Y-73225957D01*
X136953523Y-73321195D01*
X136905904Y-73464052D01*
X136334476Y-74035480D01*
X136953523Y-74035480D01*
X134239095Y-112545880D02*
X134239095Y-113355404D01*
X134286714Y-113450642D01*
X134334333Y-113498261D01*
X134429571Y-113545880D01*
X134620047Y-113545880D01*
X134715285Y-113498261D01*
X134762904Y-113450642D01*
X134810523Y-113355404D01*
X134810523Y-112545880D01*
X135810523Y-113545880D02*
X135239095Y-113545880D01*
X135524809Y-113545880D02*
X135524809Y-112545880D01*
X135429571Y-112688738D01*
X135334333Y-112783976D01*
X135239095Y-112831595D01*
X149601761Y-74588333D02*
X149649380Y-74445476D01*
X149649380Y-74207380D01*
X149601761Y-74112142D01*
X149554142Y-74064523D01*
X149458904Y-74016904D01*
X149363666Y-74016904D01*
X149268428Y-74064523D01*
X149220809Y-74112142D01*
X149173190Y-74207380D01*
X149125571Y-74397857D01*
X149077952Y-74493095D01*
X149030333Y-74540714D01*
X148935095Y-74588333D01*
X148839857Y-74588333D01*
X148744619Y-74540714D01*
X148697000Y-74493095D01*
X148649380Y-74397857D01*
X148649380Y-74159761D01*
X148697000Y-74016904D01*
X148649380Y-73683571D02*
X149649380Y-73445476D01*
X148935095Y-73255000D01*
X149649380Y-73064523D01*
X148649380Y-72826428D01*
X149649380Y-71921666D02*
X149649380Y-72493095D01*
X149649380Y-72207380D02*
X148649380Y-72207380D01*
X148792238Y-72302619D01*
X148887476Y-72397857D01*
X148935095Y-72493095D01*
X146859666Y-66190880D02*
X146859666Y-66905166D01*
X146812047Y-67048023D01*
X146716809Y-67143261D01*
X146573952Y-67190880D01*
X146478714Y-67190880D01*
X147240619Y-66190880D02*
X147859666Y-66190880D01*
X147526333Y-66571833D01*
X147669190Y-66571833D01*
X147764428Y-66619452D01*
X147812047Y-66667071D01*
X147859666Y-66762309D01*
X147859666Y-67000404D01*
X147812047Y-67095642D01*
X147764428Y-67143261D01*
X147669190Y-67190880D01*
X147383476Y-67190880D01*
X147288238Y-67143261D01*
X147240619Y-67095642D01*
X135429666Y-91463880D02*
X135429666Y-92178166D01*
X135382047Y-92321023D01*
X135286809Y-92416261D01*
X135143952Y-92463880D01*
X135048714Y-92463880D01*
X135858238Y-91559119D02*
X135905857Y-91511500D01*
X136001095Y-91463880D01*
X136239190Y-91463880D01*
X136334428Y-91511500D01*
X136382047Y-91559119D01*
X136429666Y-91654357D01*
X136429666Y-91749595D01*
X136382047Y-91892452D01*
X135810619Y-92463880D01*
X136429666Y-92463880D01*
X135493166Y-69365880D02*
X135493166Y-70080166D01*
X135445547Y-70223023D01*
X135350309Y-70318261D01*
X135207452Y-70365880D01*
X135112214Y-70365880D01*
X136493166Y-70365880D02*
X135921738Y-70365880D01*
X136207452Y-70365880D02*
X136207452Y-69365880D01*
X136112214Y-69508738D01*
X136016976Y-69603976D01*
X135921738Y-69651595D01*
X135266133Y-101131642D02*
X135218514Y-101179261D01*
X135075657Y-101226880D01*
X134980419Y-101226880D01*
X134837561Y-101179261D01*
X134742323Y-101084023D01*
X134694704Y-100988785D01*
X134647085Y-100798309D01*
X134647085Y-100655452D01*
X134694704Y-100464976D01*
X134742323Y-100369738D01*
X134837561Y-100274500D01*
X134980419Y-100226880D01*
X135075657Y-100226880D01*
X135218514Y-100274500D01*
X135266133Y-100322119D01*
X135599466Y-100226880D02*
X136266133Y-100226880D01*
X135837561Y-101226880D01*
X148788380Y-88050666D02*
X148788380Y-88526857D01*
X147788380Y-88526857D01*
X147883619Y-87764952D02*
X147836000Y-87717333D01*
X147788380Y-87622095D01*
X147788380Y-87384000D01*
X147836000Y-87288761D01*
X147883619Y-87241142D01*
X147978857Y-87193523D01*
X148074095Y-87193523D01*
X148216952Y-87241142D01*
X148788380Y-87812571D01*
X148788380Y-87193523D01*
X156122642Y-75223666D02*
X156170261Y-75271285D01*
X156217880Y-75414142D01*
X156217880Y-75509380D01*
X156170261Y-75652238D01*
X156075023Y-75747476D01*
X155979785Y-75795095D01*
X155789309Y-75842714D01*
X155646452Y-75842714D01*
X155455976Y-75795095D01*
X155360738Y-75747476D01*
X155265500Y-75652238D01*
X155217880Y-75509380D01*
X155217880Y-75414142D01*
X155265500Y-75271285D01*
X155313119Y-75223666D01*
X155217880Y-74318904D02*
X155217880Y-74795095D01*
X155694071Y-74842714D01*
X155646452Y-74795095D01*
X155598833Y-74699857D01*
X155598833Y-74461761D01*
X155646452Y-74366523D01*
X155694071Y-74318904D01*
X155789309Y-74271285D01*
X156027404Y-74271285D01*
X156122642Y-74318904D01*
X156170261Y-74366523D01*
X156217880Y-74461761D01*
X156217880Y-74699857D01*
X156170261Y-74795095D01*
X156122642Y-74842714D01*
X139101533Y-88482442D02*
X139053914Y-88530061D01*
X138911057Y-88577680D01*
X138815819Y-88577680D01*
X138672961Y-88530061D01*
X138577723Y-88434823D01*
X138530104Y-88339585D01*
X138482485Y-88149109D01*
X138482485Y-88006252D01*
X138530104Y-87815776D01*
X138577723Y-87720538D01*
X138672961Y-87625300D01*
X138815819Y-87577680D01*
X138911057Y-87577680D01*
X139053914Y-87625300D01*
X139101533Y-87672919D01*
X139958676Y-87577680D02*
X139768200Y-87577680D01*
X139672961Y-87625300D01*
X139625342Y-87672919D01*
X139530104Y-87815776D01*
X139482485Y-88006252D01*
X139482485Y-88387204D01*
X139530104Y-88482442D01*
X139577723Y-88530061D01*
X139672961Y-88577680D01*
X139863438Y-88577680D01*
X139958676Y-88530061D01*
X140006295Y-88482442D01*
X140053914Y-88387204D01*
X140053914Y-88149109D01*
X140006295Y-88053871D01*
X139958676Y-88006252D01*
X139863438Y-87958633D01*
X139672961Y-87958633D01*
X139577723Y-88006252D01*
X139530104Y-88053871D01*
X139482485Y-88149109D01*
X155900380Y-84875666D02*
X155424190Y-85209000D01*
X155900380Y-85447095D02*
X154900380Y-85447095D01*
X154900380Y-85066142D01*
X154948000Y-84970904D01*
X154995619Y-84923285D01*
X155090857Y-84875666D01*
X155233714Y-84875666D01*
X155328952Y-84923285D01*
X155376571Y-84970904D01*
X155424190Y-85066142D01*
X155424190Y-85447095D01*
X155233714Y-84018523D02*
X155900380Y-84018523D01*
X154852761Y-84256619D02*
X155567047Y-84494714D01*
X155567047Y-83875666D01*
X155836880Y-80786266D02*
X155360690Y-81119600D01*
X155836880Y-81357695D02*
X154836880Y-81357695D01*
X154836880Y-80976742D01*
X154884500Y-80881504D01*
X154932119Y-80833885D01*
X155027357Y-80786266D01*
X155170214Y-80786266D01*
X155265452Y-80833885D01*
X155313071Y-80881504D01*
X155360690Y-80976742D01*
X155360690Y-81357695D01*
X154836880Y-80452933D02*
X154836880Y-79833885D01*
X155217833Y-80167219D01*
X155217833Y-80024361D01*
X155265452Y-79929123D01*
X155313071Y-79881504D01*
X155408309Y-79833885D01*
X155646404Y-79833885D01*
X155741642Y-79881504D01*
X155789261Y-79929123D01*
X155836880Y-80024361D01*
X155836880Y-80310076D01*
X155789261Y-80405314D01*
X155741642Y-80452933D01*
X136612333Y-72143880D02*
X136136142Y-72143880D01*
X136136142Y-71143880D01*
X137469476Y-72143880D02*
X136898047Y-72143880D01*
X137183761Y-72143880D02*
X137183761Y-71143880D01*
X137088523Y-71286738D01*
X136993285Y-71381976D01*
X136898047Y-71429595D01*
X140927080Y-115787466D02*
X140450890Y-116120800D01*
X140927080Y-116358895D02*
X139927080Y-116358895D01*
X139927080Y-115977942D01*
X139974700Y-115882704D01*
X140022319Y-115835085D01*
X140117557Y-115787466D01*
X140260414Y-115787466D01*
X140355652Y-115835085D01*
X140403271Y-115882704D01*
X140450890Y-115977942D01*
X140450890Y-116358895D01*
X140022319Y-115406514D02*
X139974700Y-115358895D01*
X139927080Y-115263657D01*
X139927080Y-115025561D01*
X139974700Y-114930323D01*
X140022319Y-114882704D01*
X140117557Y-114835085D01*
X140212795Y-114835085D01*
X140355652Y-114882704D01*
X140927080Y-115454133D01*
X140927080Y-114835085D01*
X134821633Y-116911380D02*
X134488300Y-116435190D01*
X134250204Y-116911380D02*
X134250204Y-115911380D01*
X134631157Y-115911380D01*
X134726395Y-115959000D01*
X134774014Y-116006619D01*
X134821633Y-116101857D01*
X134821633Y-116244714D01*
X134774014Y-116339952D01*
X134726395Y-116387571D01*
X134631157Y-116435190D01*
X134250204Y-116435190D01*
X135774014Y-116911380D02*
X135202585Y-116911380D01*
X135488300Y-116911380D02*
X135488300Y-115911380D01*
X135393061Y-116054238D01*
X135297823Y-116149476D01*
X135202585Y-116197095D01*
X139812804Y-118333780D02*
X139812804Y-117333780D01*
X140050900Y-117333780D01*
X140193757Y-117381400D01*
X140288995Y-117476638D01*
X140336614Y-117571876D01*
X140384233Y-117762352D01*
X140384233Y-117905209D01*
X140336614Y-118095685D01*
X140288995Y-118190923D01*
X140193757Y-118286161D01*
X140050900Y-118333780D01*
X139812804Y-118333780D01*
X141336614Y-118333780D02*
X140765185Y-118333780D01*
X141050900Y-118333780D02*
X141050900Y-117333780D01*
X140955661Y-117476638D01*
X140860423Y-117571876D01*
X140765185Y-117619495D01*
X135240733Y-107735642D02*
X135193114Y-107783261D01*
X135050257Y-107830880D01*
X134955019Y-107830880D01*
X134812161Y-107783261D01*
X134716923Y-107688023D01*
X134669304Y-107592785D01*
X134621685Y-107402309D01*
X134621685Y-107259452D01*
X134669304Y-107068976D01*
X134716923Y-106973738D01*
X134812161Y-106878500D01*
X134955019Y-106830880D01*
X135050257Y-106830880D01*
X135193114Y-106878500D01*
X135240733Y-106926119D01*
X136097876Y-107164214D02*
X136097876Y-107830880D01*
X135859780Y-106783261D02*
X135621685Y-107497547D01*
X136240733Y-107497547D01*
X135240733Y-105443292D02*
X135193114Y-105490911D01*
X135050257Y-105538530D01*
X134955019Y-105538530D01*
X134812161Y-105490911D01*
X134716923Y-105395673D01*
X134669304Y-105300435D01*
X134621685Y-105109959D01*
X134621685Y-104967102D01*
X134669304Y-104776626D01*
X134716923Y-104681388D01*
X134812161Y-104586150D01*
X134955019Y-104538530D01*
X135050257Y-104538530D01*
X135193114Y-104586150D01*
X135240733Y-104633769D01*
X135574066Y-104538530D02*
X136193114Y-104538530D01*
X135859780Y-104919483D01*
X136002638Y-104919483D01*
X136097876Y-104967102D01*
X136145495Y-105014721D01*
X136193114Y-105109959D01*
X136193114Y-105348054D01*
X136145495Y-105443292D01*
X136097876Y-105490911D01*
X136002638Y-105538530D01*
X135716923Y-105538530D01*
X135621685Y-105490911D01*
X135574066Y-105443292D01*
X134821633Y-109983542D02*
X134774014Y-110031161D01*
X134631157Y-110078780D01*
X134535919Y-110078780D01*
X134393061Y-110031161D01*
X134297823Y-109935923D01*
X134250204Y-109840685D01*
X134202585Y-109650209D01*
X134202585Y-109507352D01*
X134250204Y-109316876D01*
X134297823Y-109221638D01*
X134393061Y-109126400D01*
X134535919Y-109078780D01*
X134631157Y-109078780D01*
X134774014Y-109126400D01*
X134821633Y-109174019D01*
X135202585Y-109174019D02*
X135250204Y-109126400D01*
X135345442Y-109078780D01*
X135583538Y-109078780D01*
X135678776Y-109126400D01*
X135726395Y-109174019D01*
X135774014Y-109269257D01*
X135774014Y-109364495D01*
X135726395Y-109507352D01*
X135154966Y-110078780D01*
X135774014Y-110078780D01*
X135240733Y-103150942D02*
X135193114Y-103198561D01*
X135050257Y-103246180D01*
X134955019Y-103246180D01*
X134812161Y-103198561D01*
X134716923Y-103103323D01*
X134669304Y-103008085D01*
X134621685Y-102817609D01*
X134621685Y-102674752D01*
X134669304Y-102484276D01*
X134716923Y-102389038D01*
X134812161Y-102293800D01*
X134955019Y-102246180D01*
X135050257Y-102246180D01*
X135193114Y-102293800D01*
X135240733Y-102341419D01*
X136193114Y-103246180D02*
X135621685Y-103246180D01*
X135907400Y-103246180D02*
X135907400Y-102246180D01*
X135812161Y-102389038D01*
X135716923Y-102484276D01*
X135621685Y-102531895D01*
M02*
