M48
INCH,TZ
T1C0.0157
T2C0.0315
T3C0.0394
T4C0.0429
T5C0.0430
T6C0.0450
T7C0.0630
%
G90
G05
T1
X53695Y-46435
X53940Y-24600
X54515Y-46435
X54970Y-41365
X55075Y-31285
X55075Y-32185
X55335Y-46435
X55975Y-30365
X55975Y-31272
X55975Y-32178
X55975Y-33085
X60120Y-26600
X60600Y-34295
X60995Y-27400
X61000Y-25205
X61000Y-25905
X61000Y-26605
T2
X55880Y-28550
X56390Y-28550
X60560Y-29525
X54365Y-38325
X55743Y-38325
T4
X59489Y-25691
X59489Y-27691
T5
X59489Y-28691
X59489Y-29691
T6
X56520Y-25250
X57500Y-25250
X58480Y-25250
T7
X54805Y-36041
X56825Y-36041
X58844Y-36041
X60864Y-36041
T3
G00X53938Y-25388
M15
G01X53938Y-26255
M16
G05
G00X55355Y-24640
M15
G01X56221Y-24640
M16
G05
G00X55355Y-27003
M15
G01X56221Y-27003
M16
G05
T0
M30
