G04 #@! TF.GenerationSoftware,KiCad,Pcbnew,5.1.6*
G04 #@! TF.CreationDate,2020-08-29T11:24:11+02:00*
G04 #@! TF.ProjectId,a1200_pwr,61313230-305f-4707-9772-2e6b69636164,1*
G04 #@! TF.SameCoordinates,Original*
G04 #@! TF.FileFunction,Copper,L2,Bot*
G04 #@! TF.FilePolarity,Positive*
%FSLAX46Y46*%
G04 Gerber Fmt 4.6, Leading zero omitted, Abs format (unit mm)*
G04 Created by KiCad (PCBNEW 5.1.6) date 2020-08-29 11:24:11*
%MOMM*%
%LPD*%
G01*
G04 APERTURE LIST*
G04 #@! TA.AperFunction,ComponentPad*
%ADD10C,1.700000*%
G04 #@! TD*
G04 #@! TA.AperFunction,ComponentPad*
%ADD11C,2.286000*%
G04 #@! TD*
G04 #@! TA.AperFunction,ComponentPad*
%ADD12C,3.175000*%
G04 #@! TD*
G04 #@! TA.AperFunction,ComponentPad*
%ADD13R,2.000000X4.200000*%
G04 #@! TD*
G04 #@! TA.AperFunction,ComponentPad*
%ADD14R,4.200000X2.000000*%
G04 #@! TD*
G04 #@! TA.AperFunction,ComponentPad*
%ADD15C,1.600000*%
G04 #@! TD*
G04 #@! TA.AperFunction,ComponentPad*
%ADD16R,1.600000X1.600000*%
G04 #@! TD*
G04 #@! TA.AperFunction,ViaPad*
%ADD17C,0.800000*%
G04 #@! TD*
G04 #@! TA.AperFunction,ViaPad*
%ADD18C,1.200000*%
G04 #@! TD*
G04 #@! TA.AperFunction,Conductor*
%ADD19C,1.905000*%
G04 #@! TD*
G04 #@! TA.AperFunction,Conductor*
%ADD20C,0.254000*%
G04 #@! TD*
G04 APERTURE END LIST*
D10*
X151102000Y-75414000D03*
X151102000Y-72874000D03*
X151102000Y-70334000D03*
X151102000Y-65254000D03*
D11*
X148539000Y-64135000D03*
X146050000Y-64135000D03*
X143561000Y-64135000D03*
D12*
X154595000Y-91544000D03*
X149465000Y-91544000D03*
X144335000Y-91544000D03*
X139205000Y-91544000D03*
D13*
X137002000Y-65586600D03*
D14*
X141702000Y-68586600D03*
X141702000Y-62586600D03*
D15*
X141587100Y-97345500D03*
D16*
X138087100Y-97345500D03*
D17*
X139890500Y-79463900D03*
X139890500Y-81749900D03*
X142176500Y-81732966D03*
X142176500Y-79430033D03*
X142176500Y-77127100D03*
X142176500Y-84035900D03*
D18*
X153822400Y-74993500D03*
D17*
X154940000Y-67576700D03*
X154940000Y-64020700D03*
X152704800Y-67564000D03*
X154940000Y-65798700D03*
X137007600Y-62484000D03*
X154927300Y-69596000D03*
X140550900Y-117944900D03*
X138468100Y-117944900D03*
X136385300Y-117944900D03*
X153924000Y-87109300D03*
X139623800Y-105067100D03*
D18*
X141935200Y-72517000D03*
X143230600Y-72517000D03*
D19*
X143230600Y-72517000D02*
X141935200Y-72517000D01*
X136702800Y-89538800D02*
X138499000Y-91335000D01*
X136702800Y-74485500D02*
X136702800Y-89538800D01*
X138684000Y-72504300D02*
X136702800Y-74485500D01*
X141935200Y-72517000D02*
X141922500Y-72504300D01*
X141922500Y-72504300D02*
X138684000Y-72504300D01*
D20*
G36*
X156697600Y-95689600D02*
G01*
X148437054Y-95689600D01*
X148436524Y-95689652D01*
X148429995Y-95689675D01*
X148416763Y-95691019D01*
X148403467Y-95690926D01*
X148399237Y-95691341D01*
X147816948Y-95752542D01*
X147789922Y-95758089D01*
X147762821Y-95763259D01*
X147758755Y-95764486D01*
X147758749Y-95764488D01*
X147199439Y-95937624D01*
X147173973Y-95948329D01*
X147148426Y-95958651D01*
X147144673Y-95960646D01*
X146629641Y-96239122D01*
X146606735Y-96254572D01*
X146583683Y-96269657D01*
X146580396Y-96272337D01*
X146580389Y-96272342D01*
X146580383Y-96272348D01*
X146129256Y-96645553D01*
X146109795Y-96665151D01*
X146090105Y-96684432D01*
X146087395Y-96687707D01*
X145717343Y-97141435D01*
X145702063Y-97164433D01*
X145686489Y-97187179D01*
X145684467Y-97190918D01*
X145409593Y-97707882D01*
X145399079Y-97733391D01*
X145388211Y-97758748D01*
X145386954Y-97762808D01*
X145217727Y-98323316D01*
X145212369Y-98350377D01*
X145206632Y-98377366D01*
X145206188Y-98381593D01*
X145149053Y-98964296D01*
X145149053Y-98964302D01*
X145147600Y-98979055D01*
X145147601Y-118500000D01*
X134156400Y-118500000D01*
X134156400Y-96545500D01*
X136958518Y-96545500D01*
X136958518Y-98145500D01*
X136964832Y-98209603D01*
X136983530Y-98271243D01*
X137013894Y-98328050D01*
X137054757Y-98377843D01*
X137104550Y-98418706D01*
X137161357Y-98449070D01*
X137222997Y-98467768D01*
X137287100Y-98474082D01*
X138887100Y-98474082D01*
X138951203Y-98467768D01*
X139012843Y-98449070D01*
X139069650Y-98418706D01*
X139119443Y-98377843D01*
X139160306Y-98328050D01*
X139190670Y-98271243D01*
X139209368Y-98209603D01*
X139215682Y-98145500D01*
X139215682Y-96545500D01*
X139209368Y-96481397D01*
X139190670Y-96419757D01*
X139160306Y-96362950D01*
X139119443Y-96313157D01*
X139069650Y-96272294D01*
X139012843Y-96241930D01*
X138951203Y-96223232D01*
X138887100Y-96216918D01*
X137287100Y-96216918D01*
X137222997Y-96223232D01*
X137161357Y-96241930D01*
X137104550Y-96272294D01*
X137054757Y-96313157D01*
X137013894Y-96362950D01*
X136983530Y-96419757D01*
X136964832Y-96481397D01*
X136958518Y-96545500D01*
X134156400Y-96545500D01*
X134156400Y-74485500D01*
X135417111Y-74485500D01*
X135423300Y-74548338D01*
X135423301Y-89475952D01*
X135417111Y-89538800D01*
X135423301Y-89601648D01*
X135423301Y-89601649D01*
X135441815Y-89789626D01*
X135514978Y-90030812D01*
X135633788Y-90253090D01*
X135753616Y-90399102D01*
X135753622Y-90399108D01*
X135793681Y-90447920D01*
X135842493Y-90487979D01*
X137341012Y-91986498D01*
X137364074Y-92102439D01*
X137508393Y-92450856D01*
X137717911Y-92764422D01*
X137984578Y-93031089D01*
X138298144Y-93240607D01*
X138646561Y-93384926D01*
X139016438Y-93458500D01*
X139393562Y-93458500D01*
X139763439Y-93384926D01*
X140111856Y-93240607D01*
X140425422Y-93031089D01*
X140692089Y-92764422D01*
X140901607Y-92450856D01*
X141045926Y-92102439D01*
X141119500Y-91732562D01*
X141119500Y-91355438D01*
X142420500Y-91355438D01*
X142420500Y-91732562D01*
X142494074Y-92102439D01*
X142638393Y-92450856D01*
X142847911Y-92764422D01*
X143114578Y-93031089D01*
X143428144Y-93240607D01*
X143776561Y-93384926D01*
X144146438Y-93458500D01*
X144523562Y-93458500D01*
X144893439Y-93384926D01*
X145241856Y-93240607D01*
X145555422Y-93031089D01*
X145822089Y-92764422D01*
X146031607Y-92450856D01*
X146175926Y-92102439D01*
X146249500Y-91732562D01*
X146249500Y-91355438D01*
X147550500Y-91355438D01*
X147550500Y-91732562D01*
X147624074Y-92102439D01*
X147768393Y-92450856D01*
X147977911Y-92764422D01*
X148244578Y-93031089D01*
X148558144Y-93240607D01*
X148906561Y-93384926D01*
X149276438Y-93458500D01*
X149653562Y-93458500D01*
X150023439Y-93384926D01*
X150371856Y-93240607D01*
X150685422Y-93031089D01*
X150952089Y-92764422D01*
X151161607Y-92450856D01*
X151305926Y-92102439D01*
X151379500Y-91732562D01*
X151379500Y-91355438D01*
X151305926Y-90985561D01*
X151161607Y-90637144D01*
X150952089Y-90323578D01*
X150685422Y-90056911D01*
X150371856Y-89847393D01*
X150023439Y-89703074D01*
X149653562Y-89629500D01*
X149276438Y-89629500D01*
X148906561Y-89703074D01*
X148558144Y-89847393D01*
X148244578Y-90056911D01*
X147977911Y-90323578D01*
X147768393Y-90637144D01*
X147624074Y-90985561D01*
X147550500Y-91355438D01*
X146249500Y-91355438D01*
X146175926Y-90985561D01*
X146031607Y-90637144D01*
X145822089Y-90323578D01*
X145555422Y-90056911D01*
X145241856Y-89847393D01*
X144893439Y-89703074D01*
X144523562Y-89629500D01*
X144146438Y-89629500D01*
X143776561Y-89703074D01*
X143428144Y-89847393D01*
X143114578Y-90056911D01*
X142847911Y-90323578D01*
X142638393Y-90637144D01*
X142494074Y-90985561D01*
X142420500Y-91355438D01*
X141119500Y-91355438D01*
X141045926Y-90985561D01*
X140901607Y-90637144D01*
X140692089Y-90323578D01*
X140425422Y-90056911D01*
X140111856Y-89847393D01*
X139763439Y-89703074D01*
X139393562Y-89629500D01*
X139016438Y-89629500D01*
X138671583Y-89698097D01*
X137982300Y-89008814D01*
X137982300Y-75298076D01*
X149925000Y-75298076D01*
X149925000Y-75529924D01*
X149970231Y-75757318D01*
X150058956Y-75971519D01*
X150187764Y-76164294D01*
X150351706Y-76328236D01*
X150544481Y-76457044D01*
X150758682Y-76545769D01*
X150986076Y-76591000D01*
X151217924Y-76591000D01*
X151445318Y-76545769D01*
X151659519Y-76457044D01*
X151852294Y-76328236D01*
X152016236Y-76164294D01*
X152145044Y-75971519D01*
X152233769Y-75757318D01*
X152279000Y-75529924D01*
X152279000Y-75298076D01*
X152233769Y-75070682D01*
X152145044Y-74856481D01*
X152016236Y-74663706D01*
X151852294Y-74499764D01*
X151659519Y-74370956D01*
X151445318Y-74282231D01*
X151217924Y-74237000D01*
X150986076Y-74237000D01*
X150758682Y-74282231D01*
X150544481Y-74370956D01*
X150351706Y-74499764D01*
X150187764Y-74663706D01*
X150058956Y-74856481D01*
X149970231Y-75070682D01*
X149925000Y-75298076D01*
X137982300Y-75298076D01*
X137982300Y-75015486D01*
X139213987Y-73783800D01*
X141743405Y-73783800D01*
X141872351Y-73796500D01*
X141872354Y-73796500D01*
X141935200Y-73802690D01*
X141998046Y-73796500D01*
X143293449Y-73796500D01*
X143481426Y-73777986D01*
X143722612Y-73704823D01*
X143944891Y-73586012D01*
X144139720Y-73426120D01*
X144299612Y-73231291D01*
X144418423Y-73009012D01*
X144491586Y-72767826D01*
X144492546Y-72758076D01*
X149925000Y-72758076D01*
X149925000Y-72989924D01*
X149970231Y-73217318D01*
X150058956Y-73431519D01*
X150187764Y-73624294D01*
X150351706Y-73788236D01*
X150544481Y-73917044D01*
X150758682Y-74005769D01*
X150986076Y-74051000D01*
X151217924Y-74051000D01*
X151445318Y-74005769D01*
X151659519Y-73917044D01*
X151852294Y-73788236D01*
X152016236Y-73624294D01*
X152145044Y-73431519D01*
X152233769Y-73217318D01*
X152279000Y-72989924D01*
X152279000Y-72758076D01*
X152233769Y-72530682D01*
X152145044Y-72316481D01*
X152016236Y-72123706D01*
X151852294Y-71959764D01*
X151659519Y-71830956D01*
X151445318Y-71742231D01*
X151217924Y-71697000D01*
X150986076Y-71697000D01*
X150758682Y-71742231D01*
X150544481Y-71830956D01*
X150351706Y-71959764D01*
X150187764Y-72123706D01*
X150058956Y-72316481D01*
X149970231Y-72530682D01*
X149925000Y-72758076D01*
X144492546Y-72758076D01*
X144516290Y-72517000D01*
X144491586Y-72266174D01*
X144418423Y-72024988D01*
X144299612Y-71802709D01*
X144139720Y-71607880D01*
X143944891Y-71447988D01*
X143722612Y-71329177D01*
X143481426Y-71256014D01*
X143293449Y-71237500D01*
X142114295Y-71237500D01*
X141985349Y-71224800D01*
X141985338Y-71224800D01*
X141922500Y-71218611D01*
X141859662Y-71224800D01*
X138746838Y-71224800D01*
X138684000Y-71218611D01*
X138621162Y-71224800D01*
X138621151Y-71224800D01*
X138433174Y-71243314D01*
X138191988Y-71316477D01*
X137969709Y-71435288D01*
X137823697Y-71555116D01*
X137823692Y-71555121D01*
X137774880Y-71595180D01*
X137734821Y-71643992D01*
X135842497Y-73536317D01*
X135793680Y-73576380D01*
X135633788Y-73771210D01*
X135514977Y-73993489D01*
X135441814Y-74234675D01*
X135423300Y-74422652D01*
X135423300Y-74422662D01*
X135417111Y-74485500D01*
X134156400Y-74485500D01*
X134156400Y-70218076D01*
X149925000Y-70218076D01*
X149925000Y-70449924D01*
X149970231Y-70677318D01*
X150058956Y-70891519D01*
X150187764Y-71084294D01*
X150351706Y-71248236D01*
X150544481Y-71377044D01*
X150758682Y-71465769D01*
X150986076Y-71511000D01*
X151217924Y-71511000D01*
X151445318Y-71465769D01*
X151659519Y-71377044D01*
X151852294Y-71248236D01*
X152016236Y-71084294D01*
X152145044Y-70891519D01*
X152233769Y-70677318D01*
X152279000Y-70449924D01*
X152279000Y-70218076D01*
X152233769Y-69990682D01*
X152145044Y-69776481D01*
X152016236Y-69583706D01*
X151852294Y-69419764D01*
X151659519Y-69290956D01*
X151445318Y-69202231D01*
X151217924Y-69157000D01*
X150986076Y-69157000D01*
X150758682Y-69202231D01*
X150544481Y-69290956D01*
X150351706Y-69419764D01*
X150187764Y-69583706D01*
X150058956Y-69776481D01*
X149970231Y-69990682D01*
X149925000Y-70218076D01*
X134156400Y-70218076D01*
X134156400Y-67586600D01*
X139273418Y-67586600D01*
X139273418Y-69586600D01*
X139279732Y-69650703D01*
X139298430Y-69712343D01*
X139328794Y-69769150D01*
X139369657Y-69818943D01*
X139419450Y-69859806D01*
X139476257Y-69890170D01*
X139537897Y-69908868D01*
X139602000Y-69915182D01*
X143802000Y-69915182D01*
X143866103Y-69908868D01*
X143927743Y-69890170D01*
X143984550Y-69859806D01*
X144034343Y-69818943D01*
X144075206Y-69769150D01*
X144105570Y-69712343D01*
X144124268Y-69650703D01*
X144130582Y-69586600D01*
X144130582Y-67586600D01*
X144124268Y-67522497D01*
X144105570Y-67460857D01*
X144075206Y-67404050D01*
X144034343Y-67354257D01*
X143984550Y-67313394D01*
X143927743Y-67283030D01*
X143866103Y-67264332D01*
X143802000Y-67258018D01*
X139602000Y-67258018D01*
X139537897Y-67264332D01*
X139476257Y-67283030D01*
X139419450Y-67313394D01*
X139369657Y-67354257D01*
X139328794Y-67404050D01*
X139298430Y-67460857D01*
X139279732Y-67522497D01*
X139273418Y-67586600D01*
X134156400Y-67586600D01*
X134156400Y-65138076D01*
X149925000Y-65138076D01*
X149925000Y-65369924D01*
X149970231Y-65597318D01*
X150058956Y-65811519D01*
X150187764Y-66004294D01*
X150351706Y-66168236D01*
X150544481Y-66297044D01*
X150758682Y-66385769D01*
X150986076Y-66431000D01*
X151217924Y-66431000D01*
X151445318Y-66385769D01*
X151659519Y-66297044D01*
X151852294Y-66168236D01*
X152016236Y-66004294D01*
X152145044Y-65811519D01*
X152233769Y-65597318D01*
X152279000Y-65369924D01*
X152279000Y-65138076D01*
X152233769Y-64910682D01*
X152145044Y-64696481D01*
X152016236Y-64503706D01*
X151852294Y-64339764D01*
X151659519Y-64210956D01*
X151445318Y-64122231D01*
X151217924Y-64077000D01*
X150986076Y-64077000D01*
X150758682Y-64122231D01*
X150544481Y-64210956D01*
X150351706Y-64339764D01*
X150187764Y-64503706D01*
X150058956Y-64696481D01*
X149970231Y-64910682D01*
X149925000Y-65138076D01*
X134156400Y-65138076D01*
X134156400Y-60908800D01*
X156697601Y-60908800D01*
X156697600Y-95689600D01*
G37*
X156697600Y-95689600D02*
X148437054Y-95689600D01*
X148436524Y-95689652D01*
X148429995Y-95689675D01*
X148416763Y-95691019D01*
X148403467Y-95690926D01*
X148399237Y-95691341D01*
X147816948Y-95752542D01*
X147789922Y-95758089D01*
X147762821Y-95763259D01*
X147758755Y-95764486D01*
X147758749Y-95764488D01*
X147199439Y-95937624D01*
X147173973Y-95948329D01*
X147148426Y-95958651D01*
X147144673Y-95960646D01*
X146629641Y-96239122D01*
X146606735Y-96254572D01*
X146583683Y-96269657D01*
X146580396Y-96272337D01*
X146580389Y-96272342D01*
X146580383Y-96272348D01*
X146129256Y-96645553D01*
X146109795Y-96665151D01*
X146090105Y-96684432D01*
X146087395Y-96687707D01*
X145717343Y-97141435D01*
X145702063Y-97164433D01*
X145686489Y-97187179D01*
X145684467Y-97190918D01*
X145409593Y-97707882D01*
X145399079Y-97733391D01*
X145388211Y-97758748D01*
X145386954Y-97762808D01*
X145217727Y-98323316D01*
X145212369Y-98350377D01*
X145206632Y-98377366D01*
X145206188Y-98381593D01*
X145149053Y-98964296D01*
X145149053Y-98964302D01*
X145147600Y-98979055D01*
X145147601Y-118500000D01*
X134156400Y-118500000D01*
X134156400Y-96545500D01*
X136958518Y-96545500D01*
X136958518Y-98145500D01*
X136964832Y-98209603D01*
X136983530Y-98271243D01*
X137013894Y-98328050D01*
X137054757Y-98377843D01*
X137104550Y-98418706D01*
X137161357Y-98449070D01*
X137222997Y-98467768D01*
X137287100Y-98474082D01*
X138887100Y-98474082D01*
X138951203Y-98467768D01*
X139012843Y-98449070D01*
X139069650Y-98418706D01*
X139119443Y-98377843D01*
X139160306Y-98328050D01*
X139190670Y-98271243D01*
X139209368Y-98209603D01*
X139215682Y-98145500D01*
X139215682Y-96545500D01*
X139209368Y-96481397D01*
X139190670Y-96419757D01*
X139160306Y-96362950D01*
X139119443Y-96313157D01*
X139069650Y-96272294D01*
X139012843Y-96241930D01*
X138951203Y-96223232D01*
X138887100Y-96216918D01*
X137287100Y-96216918D01*
X137222997Y-96223232D01*
X137161357Y-96241930D01*
X137104550Y-96272294D01*
X137054757Y-96313157D01*
X137013894Y-96362950D01*
X136983530Y-96419757D01*
X136964832Y-96481397D01*
X136958518Y-96545500D01*
X134156400Y-96545500D01*
X134156400Y-74485500D01*
X135417111Y-74485500D01*
X135423300Y-74548338D01*
X135423301Y-89475952D01*
X135417111Y-89538800D01*
X135423301Y-89601648D01*
X135423301Y-89601649D01*
X135441815Y-89789626D01*
X135514978Y-90030812D01*
X135633788Y-90253090D01*
X135753616Y-90399102D01*
X135753622Y-90399108D01*
X135793681Y-90447920D01*
X135842493Y-90487979D01*
X137341012Y-91986498D01*
X137364074Y-92102439D01*
X137508393Y-92450856D01*
X137717911Y-92764422D01*
X137984578Y-93031089D01*
X138298144Y-93240607D01*
X138646561Y-93384926D01*
X139016438Y-93458500D01*
X139393562Y-93458500D01*
X139763439Y-93384926D01*
X140111856Y-93240607D01*
X140425422Y-93031089D01*
X140692089Y-92764422D01*
X140901607Y-92450856D01*
X141045926Y-92102439D01*
X141119500Y-91732562D01*
X141119500Y-91355438D01*
X142420500Y-91355438D01*
X142420500Y-91732562D01*
X142494074Y-92102439D01*
X142638393Y-92450856D01*
X142847911Y-92764422D01*
X143114578Y-93031089D01*
X143428144Y-93240607D01*
X143776561Y-93384926D01*
X144146438Y-93458500D01*
X144523562Y-93458500D01*
X144893439Y-93384926D01*
X145241856Y-93240607D01*
X145555422Y-93031089D01*
X145822089Y-92764422D01*
X146031607Y-92450856D01*
X146175926Y-92102439D01*
X146249500Y-91732562D01*
X146249500Y-91355438D01*
X147550500Y-91355438D01*
X147550500Y-91732562D01*
X147624074Y-92102439D01*
X147768393Y-92450856D01*
X147977911Y-92764422D01*
X148244578Y-93031089D01*
X148558144Y-93240607D01*
X148906561Y-93384926D01*
X149276438Y-93458500D01*
X149653562Y-93458500D01*
X150023439Y-93384926D01*
X150371856Y-93240607D01*
X150685422Y-93031089D01*
X150952089Y-92764422D01*
X151161607Y-92450856D01*
X151305926Y-92102439D01*
X151379500Y-91732562D01*
X151379500Y-91355438D01*
X151305926Y-90985561D01*
X151161607Y-90637144D01*
X150952089Y-90323578D01*
X150685422Y-90056911D01*
X150371856Y-89847393D01*
X150023439Y-89703074D01*
X149653562Y-89629500D01*
X149276438Y-89629500D01*
X148906561Y-89703074D01*
X148558144Y-89847393D01*
X148244578Y-90056911D01*
X147977911Y-90323578D01*
X147768393Y-90637144D01*
X147624074Y-90985561D01*
X147550500Y-91355438D01*
X146249500Y-91355438D01*
X146175926Y-90985561D01*
X146031607Y-90637144D01*
X145822089Y-90323578D01*
X145555422Y-90056911D01*
X145241856Y-89847393D01*
X144893439Y-89703074D01*
X144523562Y-89629500D01*
X144146438Y-89629500D01*
X143776561Y-89703074D01*
X143428144Y-89847393D01*
X143114578Y-90056911D01*
X142847911Y-90323578D01*
X142638393Y-90637144D01*
X142494074Y-90985561D01*
X142420500Y-91355438D01*
X141119500Y-91355438D01*
X141045926Y-90985561D01*
X140901607Y-90637144D01*
X140692089Y-90323578D01*
X140425422Y-90056911D01*
X140111856Y-89847393D01*
X139763439Y-89703074D01*
X139393562Y-89629500D01*
X139016438Y-89629500D01*
X138671583Y-89698097D01*
X137982300Y-89008814D01*
X137982300Y-75298076D01*
X149925000Y-75298076D01*
X149925000Y-75529924D01*
X149970231Y-75757318D01*
X150058956Y-75971519D01*
X150187764Y-76164294D01*
X150351706Y-76328236D01*
X150544481Y-76457044D01*
X150758682Y-76545769D01*
X150986076Y-76591000D01*
X151217924Y-76591000D01*
X151445318Y-76545769D01*
X151659519Y-76457044D01*
X151852294Y-76328236D01*
X152016236Y-76164294D01*
X152145044Y-75971519D01*
X152233769Y-75757318D01*
X152279000Y-75529924D01*
X152279000Y-75298076D01*
X152233769Y-75070682D01*
X152145044Y-74856481D01*
X152016236Y-74663706D01*
X151852294Y-74499764D01*
X151659519Y-74370956D01*
X151445318Y-74282231D01*
X151217924Y-74237000D01*
X150986076Y-74237000D01*
X150758682Y-74282231D01*
X150544481Y-74370956D01*
X150351706Y-74499764D01*
X150187764Y-74663706D01*
X150058956Y-74856481D01*
X149970231Y-75070682D01*
X149925000Y-75298076D01*
X137982300Y-75298076D01*
X137982300Y-75015486D01*
X139213987Y-73783800D01*
X141743405Y-73783800D01*
X141872351Y-73796500D01*
X141872354Y-73796500D01*
X141935200Y-73802690D01*
X141998046Y-73796500D01*
X143293449Y-73796500D01*
X143481426Y-73777986D01*
X143722612Y-73704823D01*
X143944891Y-73586012D01*
X144139720Y-73426120D01*
X144299612Y-73231291D01*
X144418423Y-73009012D01*
X144491586Y-72767826D01*
X144492546Y-72758076D01*
X149925000Y-72758076D01*
X149925000Y-72989924D01*
X149970231Y-73217318D01*
X150058956Y-73431519D01*
X150187764Y-73624294D01*
X150351706Y-73788236D01*
X150544481Y-73917044D01*
X150758682Y-74005769D01*
X150986076Y-74051000D01*
X151217924Y-74051000D01*
X151445318Y-74005769D01*
X151659519Y-73917044D01*
X151852294Y-73788236D01*
X152016236Y-73624294D01*
X152145044Y-73431519D01*
X152233769Y-73217318D01*
X152279000Y-72989924D01*
X152279000Y-72758076D01*
X152233769Y-72530682D01*
X152145044Y-72316481D01*
X152016236Y-72123706D01*
X151852294Y-71959764D01*
X151659519Y-71830956D01*
X151445318Y-71742231D01*
X151217924Y-71697000D01*
X150986076Y-71697000D01*
X150758682Y-71742231D01*
X150544481Y-71830956D01*
X150351706Y-71959764D01*
X150187764Y-72123706D01*
X150058956Y-72316481D01*
X149970231Y-72530682D01*
X149925000Y-72758076D01*
X144492546Y-72758076D01*
X144516290Y-72517000D01*
X144491586Y-72266174D01*
X144418423Y-72024988D01*
X144299612Y-71802709D01*
X144139720Y-71607880D01*
X143944891Y-71447988D01*
X143722612Y-71329177D01*
X143481426Y-71256014D01*
X143293449Y-71237500D01*
X142114295Y-71237500D01*
X141985349Y-71224800D01*
X141985338Y-71224800D01*
X141922500Y-71218611D01*
X141859662Y-71224800D01*
X138746838Y-71224800D01*
X138684000Y-71218611D01*
X138621162Y-71224800D01*
X138621151Y-71224800D01*
X138433174Y-71243314D01*
X138191988Y-71316477D01*
X137969709Y-71435288D01*
X137823697Y-71555116D01*
X137823692Y-71555121D01*
X137774880Y-71595180D01*
X137734821Y-71643992D01*
X135842497Y-73536317D01*
X135793680Y-73576380D01*
X135633788Y-73771210D01*
X135514977Y-73993489D01*
X135441814Y-74234675D01*
X135423300Y-74422652D01*
X135423300Y-74422662D01*
X135417111Y-74485500D01*
X134156400Y-74485500D01*
X134156400Y-70218076D01*
X149925000Y-70218076D01*
X149925000Y-70449924D01*
X149970231Y-70677318D01*
X150058956Y-70891519D01*
X150187764Y-71084294D01*
X150351706Y-71248236D01*
X150544481Y-71377044D01*
X150758682Y-71465769D01*
X150986076Y-71511000D01*
X151217924Y-71511000D01*
X151445318Y-71465769D01*
X151659519Y-71377044D01*
X151852294Y-71248236D01*
X152016236Y-71084294D01*
X152145044Y-70891519D01*
X152233769Y-70677318D01*
X152279000Y-70449924D01*
X152279000Y-70218076D01*
X152233769Y-69990682D01*
X152145044Y-69776481D01*
X152016236Y-69583706D01*
X151852294Y-69419764D01*
X151659519Y-69290956D01*
X151445318Y-69202231D01*
X151217924Y-69157000D01*
X150986076Y-69157000D01*
X150758682Y-69202231D01*
X150544481Y-69290956D01*
X150351706Y-69419764D01*
X150187764Y-69583706D01*
X150058956Y-69776481D01*
X149970231Y-69990682D01*
X149925000Y-70218076D01*
X134156400Y-70218076D01*
X134156400Y-67586600D01*
X139273418Y-67586600D01*
X139273418Y-69586600D01*
X139279732Y-69650703D01*
X139298430Y-69712343D01*
X139328794Y-69769150D01*
X139369657Y-69818943D01*
X139419450Y-69859806D01*
X139476257Y-69890170D01*
X139537897Y-69908868D01*
X139602000Y-69915182D01*
X143802000Y-69915182D01*
X143866103Y-69908868D01*
X143927743Y-69890170D01*
X143984550Y-69859806D01*
X144034343Y-69818943D01*
X144075206Y-69769150D01*
X144105570Y-69712343D01*
X144124268Y-69650703D01*
X144130582Y-69586600D01*
X144130582Y-67586600D01*
X144124268Y-67522497D01*
X144105570Y-67460857D01*
X144075206Y-67404050D01*
X144034343Y-67354257D01*
X143984550Y-67313394D01*
X143927743Y-67283030D01*
X143866103Y-67264332D01*
X143802000Y-67258018D01*
X139602000Y-67258018D01*
X139537897Y-67264332D01*
X139476257Y-67283030D01*
X139419450Y-67313394D01*
X139369657Y-67354257D01*
X139328794Y-67404050D01*
X139298430Y-67460857D01*
X139279732Y-67522497D01*
X139273418Y-67586600D01*
X134156400Y-67586600D01*
X134156400Y-65138076D01*
X149925000Y-65138076D01*
X149925000Y-65369924D01*
X149970231Y-65597318D01*
X150058956Y-65811519D01*
X150187764Y-66004294D01*
X150351706Y-66168236D01*
X150544481Y-66297044D01*
X150758682Y-66385769D01*
X150986076Y-66431000D01*
X151217924Y-66431000D01*
X151445318Y-66385769D01*
X151659519Y-66297044D01*
X151852294Y-66168236D01*
X152016236Y-66004294D01*
X152145044Y-65811519D01*
X152233769Y-65597318D01*
X152279000Y-65369924D01*
X152279000Y-65138076D01*
X152233769Y-64910682D01*
X152145044Y-64696481D01*
X152016236Y-64503706D01*
X151852294Y-64339764D01*
X151659519Y-64210956D01*
X151445318Y-64122231D01*
X151217924Y-64077000D01*
X150986076Y-64077000D01*
X150758682Y-64122231D01*
X150544481Y-64210956D01*
X150351706Y-64339764D01*
X150187764Y-64503706D01*
X150058956Y-64696481D01*
X149970231Y-64910682D01*
X149925000Y-65138076D01*
X134156400Y-65138076D01*
X134156400Y-60908800D01*
X156697601Y-60908800D01*
X156697600Y-95689600D01*
M02*
