G04 #@! TF.GenerationSoftware,KiCad,Pcbnew,5.1.6*
G04 #@! TF.CreationDate,2020-08-29T11:24:11+02:00*
G04 #@! TF.ProjectId,a1200_pwr,61313230-305f-4707-9772-2e6b69636164,1*
G04 #@! TF.SameCoordinates,Original*
G04 #@! TF.FileFunction,Copper,L1,Top*
G04 #@! TF.FilePolarity,Positive*
%FSLAX46Y46*%
G04 Gerber Fmt 4.6, Leading zero omitted, Abs format (unit mm)*
G04 Created by KiCad (PCBNEW 5.1.6) date 2020-08-29 11:24:11*
%MOMM*%
%LPD*%
G01*
G04 APERTURE LIST*
G04 #@! TA.AperFunction,SMDPad,CuDef*
%ADD10R,1.060000X1.060000*%
G04 #@! TD*
G04 #@! TA.AperFunction,SMDPad,CuDef*
%ADD11R,0.400000X0.750000*%
G04 #@! TD*
G04 #@! TA.AperFunction,SMDPad,CuDef*
%ADD12R,3.000000X0.800000*%
G04 #@! TD*
G04 #@! TA.AperFunction,ComponentPad*
%ADD13C,1.700000*%
G04 #@! TD*
G04 #@! TA.AperFunction,ComponentPad*
%ADD14C,2.286000*%
G04 #@! TD*
G04 #@! TA.AperFunction,ComponentPad*
%ADD15C,3.175000*%
G04 #@! TD*
G04 #@! TA.AperFunction,ComponentPad*
%ADD16R,2.000000X4.200000*%
G04 #@! TD*
G04 #@! TA.AperFunction,ComponentPad*
%ADD17R,4.200000X2.000000*%
G04 #@! TD*
G04 #@! TA.AperFunction,ComponentPad*
%ADD18C,1.600000*%
G04 #@! TD*
G04 #@! TA.AperFunction,ComponentPad*
%ADD19R,1.600000X1.600000*%
G04 #@! TD*
G04 #@! TA.AperFunction,SMDPad,CuDef*
%ADD20R,1.470000X3.000000*%
G04 #@! TD*
G04 #@! TA.AperFunction,SMDPad,CuDef*
%ADD21R,1.600000X2.000000*%
G04 #@! TD*
G04 #@! TA.AperFunction,SMDPad,CuDef*
%ADD22R,2.000000X1.600000*%
G04 #@! TD*
G04 #@! TA.AperFunction,SMDPad,CuDef*
%ADD23R,0.750000X1.200000*%
G04 #@! TD*
G04 #@! TA.AperFunction,SMDPad,CuDef*
%ADD24R,2.200000X3.000000*%
G04 #@! TD*
G04 #@! TA.AperFunction,SMDPad,CuDef*
%ADD25R,1.200000X0.750000*%
G04 #@! TD*
G04 #@! TA.AperFunction,SMDPad,CuDef*
%ADD26R,1.800000X3.500000*%
G04 #@! TD*
G04 #@! TA.AperFunction,SMDPad,CuDef*
%ADD27R,1.500000X1.250000*%
G04 #@! TD*
G04 #@! TA.AperFunction,ViaPad*
%ADD28C,0.800000*%
G04 #@! TD*
G04 #@! TA.AperFunction,ViaPad*
%ADD29C,1.200000*%
G04 #@! TD*
G04 #@! TA.AperFunction,Conductor*
%ADD30C,1.270000*%
G04 #@! TD*
G04 #@! TA.AperFunction,Conductor*
%ADD31C,1.670000*%
G04 #@! TD*
G04 #@! TA.AperFunction,Conductor*
%ADD32C,0.508000*%
G04 #@! TD*
G04 #@! TA.AperFunction,Conductor*
%ADD33C,1.905000*%
G04 #@! TD*
G04 #@! TA.AperFunction,Conductor*
%ADD34C,2.800000*%
G04 #@! TD*
G04 #@! TA.AperFunction,Conductor*
%ADD35C,3.000000*%
G04 #@! TD*
G04 #@! TA.AperFunction,Conductor*
%ADD36C,0.254000*%
G04 #@! TD*
G04 #@! TA.AperFunction,Conductor*
%ADD37C,0.152400*%
G04 #@! TD*
G04 APERTURE END LIST*
D10*
X145618100Y-85193100D03*
X145618100Y-82903100D03*
X145618100Y-80613100D03*
X145618100Y-78323100D03*
X145618100Y-76033100D03*
X143328100Y-85193100D03*
X143328100Y-82903100D03*
X143328100Y-80613100D03*
X143328100Y-78323100D03*
X143328100Y-76033100D03*
X141038100Y-85193100D03*
X141038100Y-82903100D03*
X141038100Y-80613100D03*
X141038100Y-78323100D03*
X141038100Y-76033100D03*
X138748100Y-85193100D03*
X138748100Y-82903100D03*
X138748100Y-80613100D03*
X138748100Y-78323100D03*
X138748100Y-76033100D03*
X136458100Y-85193100D03*
X136458100Y-82903100D03*
X136458100Y-80613100D03*
X136458100Y-78323100D03*
X136458100Y-76033100D03*
D11*
X138829900Y-111568500D03*
X138229900Y-111568500D03*
X137629900Y-111568500D03*
X137029900Y-111568500D03*
X136429900Y-111568500D03*
X136429900Y-114618500D03*
X137029900Y-114618500D03*
X137629900Y-114618500D03*
X138229900Y-114618500D03*
X138829900Y-114618500D03*
D12*
X137629900Y-112918500D03*
D13*
X151102000Y-75414000D03*
X151102000Y-72874000D03*
X151102000Y-70334000D03*
X151102000Y-65254000D03*
D14*
X148539000Y-64135000D03*
X146050000Y-64135000D03*
X143561000Y-64135000D03*
D15*
X154595000Y-91544000D03*
X149465000Y-91544000D03*
X144335000Y-91544000D03*
X139205000Y-91544000D03*
D16*
X137002000Y-65586600D03*
D17*
X141702000Y-68586600D03*
X141702000Y-62586600D03*
D18*
X141587100Y-97345500D03*
D19*
X138087100Y-97345500D03*
D20*
X150112400Y-79153200D03*
X150112400Y-86453200D03*
D21*
X153822400Y-76942700D03*
X153822400Y-72942700D03*
D22*
X141916400Y-88074500D03*
X145916400Y-88074500D03*
D23*
X153936700Y-83759000D03*
X153936700Y-85659000D03*
X153911300Y-79644200D03*
X153911300Y-81544200D03*
D24*
X145190800Y-72212200D03*
X139390800Y-72212200D03*
D23*
X140449300Y-111749800D03*
X140449300Y-113649800D03*
D25*
X138567200Y-116420900D03*
X136667200Y-116420900D03*
D26*
X143294100Y-110733200D03*
X143294100Y-115733200D03*
D22*
X141725400Y-107378500D03*
X137725400Y-107378500D03*
X141738100Y-105092500D03*
X137738100Y-105092500D03*
D27*
X139807000Y-109639100D03*
X137307000Y-109639100D03*
D22*
X141738100Y-102793800D03*
X137738100Y-102793800D03*
D28*
X139890500Y-79463900D03*
X139890500Y-81749900D03*
X142176500Y-81732966D03*
X142176500Y-79430033D03*
X142176500Y-77127100D03*
X142176500Y-84035900D03*
D29*
X153822400Y-74993500D03*
D28*
X154940000Y-67576700D03*
X154940000Y-64020700D03*
X152704800Y-67564000D03*
X154940000Y-65798700D03*
X137007600Y-62484000D03*
X154927300Y-69596000D03*
X140550900Y-117944900D03*
X138468100Y-117944900D03*
X136385300Y-117944900D03*
X153924000Y-87109300D03*
X139623800Y-105067100D03*
D29*
X141935200Y-72517000D03*
X143230600Y-72517000D03*
D30*
X141038100Y-85193100D02*
X141038100Y-82903100D01*
X138748100Y-82903100D02*
X145618100Y-82903100D01*
X138748100Y-80613100D02*
X143328100Y-80613100D01*
X138748100Y-82903100D02*
X138748100Y-78323100D01*
X136458100Y-78323100D02*
X143328100Y-78323100D01*
X141038100Y-78323100D02*
X141038100Y-76033100D01*
X143328100Y-76033100D02*
X143328100Y-85193100D01*
X141038100Y-82903100D02*
X141038100Y-78323100D01*
X142176500Y-79438500D02*
X142176500Y-81724500D01*
X142176500Y-81724500D02*
X142176500Y-84035900D01*
X142176500Y-85153500D02*
X142201900Y-85178900D01*
X142176500Y-84035900D02*
X142176500Y-85153500D01*
X143328100Y-85193100D02*
X142201900Y-85178900D01*
X142201900Y-85178900D02*
X141038100Y-85193100D01*
X139915900Y-79438500D02*
X139890500Y-79463900D01*
X142176500Y-79438500D02*
X139915900Y-79438500D01*
X139890500Y-81749900D02*
X139890500Y-79463900D01*
X142151100Y-81749900D02*
X142176500Y-81724500D01*
X139890500Y-81749900D02*
X142151100Y-81749900D01*
X139888900Y-79463900D02*
X138748100Y-78323100D01*
X139890500Y-79463900D02*
X139888900Y-79463900D01*
X139890500Y-81760700D02*
X138748100Y-82903100D01*
X139890500Y-81749900D02*
X139890500Y-81760700D01*
D31*
X153822400Y-76942700D02*
X153822400Y-75095201D01*
D30*
X141038100Y-76033100D02*
X143328100Y-76033100D01*
D32*
X153936700Y-85659000D02*
X153936700Y-87096600D01*
X153936700Y-87096600D02*
X153924000Y-87109300D01*
D33*
X142107000Y-85178900D02*
X142201900Y-85178900D01*
X141916400Y-85369500D02*
X142107000Y-85178900D01*
X141916400Y-88074500D02*
X141916400Y-85369500D01*
D30*
X137725400Y-105105200D02*
X137738100Y-105092500D01*
X137725400Y-107378500D02*
X137725400Y-105105200D01*
X139598400Y-105092500D02*
X139623800Y-105067100D01*
X137738100Y-105092500D02*
X139598400Y-105092500D01*
X139623800Y-103314500D02*
X140131800Y-102806500D01*
X139623800Y-105067100D02*
X139623800Y-103314500D01*
X141725400Y-102806500D02*
X141738100Y-102793800D01*
X140131800Y-102806500D02*
X141725400Y-102806500D01*
X142176500Y-76682600D02*
X142176500Y-79438500D01*
X142189200Y-76669900D02*
X142176500Y-76682600D01*
D33*
X144987600Y-72517000D02*
X141935200Y-72517000D01*
X145509700Y-72531100D02*
X145190800Y-72212200D01*
X153753700Y-72874000D02*
X153822400Y-72942700D01*
X151102000Y-72874000D02*
X153753700Y-72874000D01*
X145508300Y-72529700D02*
X145190800Y-72212200D01*
X151102000Y-72874000D02*
X150757700Y-72529700D01*
X150757700Y-72529700D02*
X145508300Y-72529700D01*
D30*
X135420100Y-109270800D02*
X135801100Y-109651800D01*
X135420100Y-103314500D02*
X135420100Y-109270800D01*
X137738100Y-102793800D02*
X135940800Y-102793800D01*
X135940800Y-102793800D02*
X135420100Y-103314500D01*
X135788400Y-109639100D02*
X137307000Y-109639100D01*
X135420100Y-109270800D02*
X135788400Y-109639100D01*
X137750800Y-102781100D02*
X137738100Y-102793800D01*
X138055600Y-102476300D02*
X137738100Y-102793800D01*
X138081000Y-102450900D02*
X137738100Y-102793800D01*
X139205000Y-91544000D02*
X138081000Y-92668000D01*
X138081000Y-92668000D02*
X138081000Y-102450900D01*
X143294100Y-110733200D02*
X143613900Y-110733200D01*
X143294100Y-110733200D02*
X143637000Y-110390300D01*
X143294100Y-110733200D02*
X144157700Y-109869600D01*
X144157700Y-109869600D02*
X144170400Y-109856900D01*
X144500600Y-91709600D02*
X144335000Y-91544000D01*
X144157700Y-109869600D02*
X144500600Y-109526700D01*
X144500600Y-109526700D02*
X144500600Y-91709600D01*
D33*
X149453600Y-88074500D02*
X150101300Y-88722200D01*
X145916400Y-88074500D02*
X149453600Y-88074500D01*
D34*
X150101300Y-88722200D02*
X150101300Y-86464300D01*
D35*
X149615000Y-91544000D02*
X149615000Y-89208500D01*
X149465000Y-91694000D02*
X149615000Y-91544000D01*
D36*
X137029900Y-115247500D02*
X137029900Y-114618500D01*
X138203300Y-116420900D02*
X137029900Y-115247500D01*
X138567200Y-116420900D02*
X138203300Y-116420900D01*
X140449300Y-115392800D02*
X140449300Y-114503800D01*
X140449300Y-114503800D02*
X140449300Y-113649800D01*
X139421200Y-116420900D02*
X140449300Y-115392800D01*
X138567200Y-116420900D02*
X139421200Y-116420900D01*
D33*
X138748100Y-72854900D02*
X138748100Y-76033100D01*
X139390800Y-72212200D02*
X138748100Y-72854900D01*
X138748100Y-76033100D02*
X136458100Y-76033100D01*
X145618100Y-76033100D02*
X145618100Y-80613100D01*
D32*
X153420300Y-79153200D02*
X153911300Y-79644200D01*
X150112400Y-79153200D02*
X153420300Y-79153200D01*
D33*
X150092900Y-79133700D02*
X150112400Y-79153200D01*
X148196300Y-79133700D02*
X150092900Y-79133700D01*
X145618100Y-78323100D02*
X147385700Y-78323100D01*
X147385700Y-78323100D02*
X148196300Y-79133700D01*
D32*
X153911300Y-83733600D02*
X153936700Y-83759000D01*
X153911300Y-81544200D02*
X153911300Y-83733600D01*
X148090200Y-83759000D02*
X153936700Y-83759000D01*
X145618100Y-85193100D02*
X146656100Y-85193100D01*
X146656100Y-85193100D02*
X148090200Y-83759000D01*
D33*
X141508600Y-68580000D02*
X141502000Y-68586600D01*
X151102000Y-70334000D02*
X149348000Y-68580000D01*
X149348000Y-68580000D02*
X141508600Y-68580000D01*
D36*
G36*
X144653000Y-112560100D02*
G01*
X139687300Y-112560100D01*
X139662524Y-112562540D01*
X139638699Y-112569767D01*
X139616743Y-112581503D01*
X139597497Y-112597297D01*
X139581703Y-112616543D01*
X139569967Y-112638499D01*
X139562740Y-112662324D01*
X139560300Y-112687100D01*
X139560300Y-113499900D01*
X139403721Y-113499900D01*
X139433470Y-113444243D01*
X139452168Y-113382603D01*
X139458482Y-113318500D01*
X139458482Y-112518500D01*
X139452168Y-112454397D01*
X139433470Y-112392757D01*
X139403106Y-112335950D01*
X139362243Y-112286157D01*
X139312450Y-112245294D01*
X139255643Y-112214930D01*
X139194003Y-112196232D01*
X139129900Y-112189918D01*
X138696700Y-112189918D01*
X138696700Y-112133856D01*
X138703106Y-112126050D01*
X138733470Y-112069243D01*
X138752168Y-112007603D01*
X138758482Y-111943500D01*
X138758482Y-111193500D01*
X138752168Y-111129397D01*
X138733470Y-111067757D01*
X138703106Y-111010950D01*
X138696700Y-111003144D01*
X138696700Y-110756700D01*
X138811000Y-110756700D01*
X138835776Y-110754260D01*
X138859601Y-110747033D01*
X138881557Y-110735297D01*
X138900803Y-110719503D01*
X138916597Y-110700257D01*
X138928333Y-110678301D01*
X138935560Y-110654476D01*
X138938000Y-110629700D01*
X138938000Y-108851700D01*
X140487400Y-108851700D01*
X140512176Y-108849260D01*
X140536001Y-108842033D01*
X140557957Y-108830297D01*
X140577203Y-108814503D01*
X140592997Y-108795257D01*
X140604733Y-108773301D01*
X140611960Y-108749476D01*
X140614400Y-108724700D01*
X140614400Y-104180994D01*
X144653000Y-104172032D01*
X144653000Y-112560100D01*
G37*
X144653000Y-112560100D02*
X139687300Y-112560100D01*
X139662524Y-112562540D01*
X139638699Y-112569767D01*
X139616743Y-112581503D01*
X139597497Y-112597297D01*
X139581703Y-112616543D01*
X139569967Y-112638499D01*
X139562740Y-112662324D01*
X139560300Y-112687100D01*
X139560300Y-113499900D01*
X139403721Y-113499900D01*
X139433470Y-113444243D01*
X139452168Y-113382603D01*
X139458482Y-113318500D01*
X139458482Y-112518500D01*
X139452168Y-112454397D01*
X139433470Y-112392757D01*
X139403106Y-112335950D01*
X139362243Y-112286157D01*
X139312450Y-112245294D01*
X139255643Y-112214930D01*
X139194003Y-112196232D01*
X139129900Y-112189918D01*
X138696700Y-112189918D01*
X138696700Y-112133856D01*
X138703106Y-112126050D01*
X138733470Y-112069243D01*
X138752168Y-112007603D01*
X138758482Y-111943500D01*
X138758482Y-111193500D01*
X138752168Y-111129397D01*
X138733470Y-111067757D01*
X138703106Y-111010950D01*
X138696700Y-111003144D01*
X138696700Y-110756700D01*
X138811000Y-110756700D01*
X138835776Y-110754260D01*
X138859601Y-110747033D01*
X138881557Y-110735297D01*
X138900803Y-110719503D01*
X138916597Y-110700257D01*
X138928333Y-110678301D01*
X138935560Y-110654476D01*
X138938000Y-110629700D01*
X138938000Y-108851700D01*
X140487400Y-108851700D01*
X140512176Y-108849260D01*
X140536001Y-108842033D01*
X140557957Y-108830297D01*
X140577203Y-108814503D01*
X140592997Y-108795257D01*
X140604733Y-108773301D01*
X140611960Y-108749476D01*
X140614400Y-108724700D01*
X140614400Y-104180994D01*
X144653000Y-104172032D01*
X144653000Y-112560100D01*
G36*
X144513300Y-118500000D02*
G01*
X135623300Y-118500000D01*
X135623300Y-114071400D01*
X136550400Y-114071400D01*
X136550400Y-114072725D01*
X136526330Y-114117757D01*
X136507632Y-114179397D01*
X136501318Y-114243500D01*
X136501318Y-114993500D01*
X136507632Y-115057603D01*
X136526330Y-115119243D01*
X136550400Y-115164275D01*
X136550400Y-115519200D01*
X136552840Y-115543976D01*
X136560067Y-115567801D01*
X136571803Y-115589757D01*
X136587597Y-115609003D01*
X136606843Y-115624797D01*
X136628799Y-115636533D01*
X136652624Y-115643760D01*
X136677400Y-115646200D01*
X136786548Y-115646200D01*
X137426700Y-116286353D01*
X137426700Y-117208300D01*
X137429140Y-117233076D01*
X137436367Y-117256901D01*
X137448103Y-117278857D01*
X137463897Y-117298103D01*
X137483143Y-117313897D01*
X137505099Y-117325633D01*
X137528924Y-117332860D01*
X137553700Y-117335300D01*
X141795500Y-117335300D01*
X141820276Y-117332860D01*
X141844101Y-117325633D01*
X141866057Y-117313897D01*
X141885303Y-117298103D01*
X141901097Y-117278857D01*
X141912833Y-117256901D01*
X141920060Y-117233076D01*
X141922500Y-117208300D01*
X141922500Y-113614200D01*
X144513300Y-113614200D01*
X144513300Y-118500000D01*
G37*
X144513300Y-118500000D02*
X135623300Y-118500000D01*
X135623300Y-114071400D01*
X136550400Y-114071400D01*
X136550400Y-114072725D01*
X136526330Y-114117757D01*
X136507632Y-114179397D01*
X136501318Y-114243500D01*
X136501318Y-114993500D01*
X136507632Y-115057603D01*
X136526330Y-115119243D01*
X136550400Y-115164275D01*
X136550400Y-115519200D01*
X136552840Y-115543976D01*
X136560067Y-115567801D01*
X136571803Y-115589757D01*
X136587597Y-115609003D01*
X136606843Y-115624797D01*
X136628799Y-115636533D01*
X136652624Y-115643760D01*
X136677400Y-115646200D01*
X136786548Y-115646200D01*
X137426700Y-116286353D01*
X137426700Y-117208300D01*
X137429140Y-117233076D01*
X137436367Y-117256901D01*
X137448103Y-117278857D01*
X137463897Y-117298103D01*
X137483143Y-117313897D01*
X137505099Y-117325633D01*
X137528924Y-117332860D01*
X137553700Y-117335300D01*
X141795500Y-117335300D01*
X141820276Y-117332860D01*
X141844101Y-117325633D01*
X141866057Y-117313897D01*
X141885303Y-117298103D01*
X141901097Y-117278857D01*
X141912833Y-117256901D01*
X141920060Y-117233076D01*
X141922500Y-117208300D01*
X141922500Y-113614200D01*
X144513300Y-113614200D01*
X144513300Y-118500000D01*
G36*
X156260800Y-70154800D02*
G01*
X152370040Y-70154800D01*
X152362985Y-70083174D01*
X152289823Y-69841987D01*
X152171012Y-69619709D01*
X152051184Y-69473698D01*
X150297183Y-67719697D01*
X150257120Y-67670880D01*
X150062291Y-67510988D01*
X149840012Y-67392177D01*
X149598826Y-67319014D01*
X149410849Y-67300500D01*
X149410838Y-67300500D01*
X149348000Y-67294311D01*
X149285162Y-67300500D01*
X143960427Y-67300500D01*
X143927743Y-67283030D01*
X143866103Y-67264332D01*
X143802000Y-67258018D01*
X139602000Y-67258018D01*
X139537897Y-67264332D01*
X139476257Y-67283030D01*
X139419450Y-67313394D01*
X139369657Y-67354257D01*
X139328794Y-67404050D01*
X139298430Y-67460857D01*
X139279732Y-67522497D01*
X139273418Y-67586600D01*
X139273418Y-69586600D01*
X139279732Y-69650703D01*
X139298430Y-69712343D01*
X139328794Y-69769150D01*
X139369657Y-69818943D01*
X139419450Y-69859806D01*
X139476257Y-69890170D01*
X139537897Y-69908868D01*
X139602000Y-69915182D01*
X143802000Y-69915182D01*
X143866103Y-69908868D01*
X143927743Y-69890170D01*
X143984550Y-69859806D01*
X143984923Y-69859500D01*
X148818014Y-69859500D01*
X149113314Y-70154800D01*
X134442200Y-70154800D01*
X134442200Y-65138076D01*
X149925000Y-65138076D01*
X149925000Y-65369924D01*
X149970231Y-65597318D01*
X150058956Y-65811519D01*
X150187764Y-66004294D01*
X150351706Y-66168236D01*
X150544481Y-66297044D01*
X150758682Y-66385769D01*
X150986076Y-66431000D01*
X151217924Y-66431000D01*
X151445318Y-66385769D01*
X151659519Y-66297044D01*
X151852294Y-66168236D01*
X152016236Y-66004294D01*
X152145044Y-65811519D01*
X152233769Y-65597318D01*
X152279000Y-65369924D01*
X152279000Y-65138076D01*
X152233769Y-64910682D01*
X152145044Y-64696481D01*
X152016236Y-64503706D01*
X151852294Y-64339764D01*
X151659519Y-64210956D01*
X151445318Y-64122231D01*
X151217924Y-64077000D01*
X150986076Y-64077000D01*
X150758682Y-64122231D01*
X150544481Y-64210956D01*
X150351706Y-64339764D01*
X150187764Y-64503706D01*
X150058956Y-64696481D01*
X149970231Y-64910682D01*
X149925000Y-65138076D01*
X134442200Y-65138076D01*
X134442200Y-61696600D01*
X156260800Y-61696600D01*
X156260800Y-70154800D01*
G37*
X156260800Y-70154800D02*
X152370040Y-70154800D01*
X152362985Y-70083174D01*
X152289823Y-69841987D01*
X152171012Y-69619709D01*
X152051184Y-69473698D01*
X150297183Y-67719697D01*
X150257120Y-67670880D01*
X150062291Y-67510988D01*
X149840012Y-67392177D01*
X149598826Y-67319014D01*
X149410849Y-67300500D01*
X149410838Y-67300500D01*
X149348000Y-67294311D01*
X149285162Y-67300500D01*
X143960427Y-67300500D01*
X143927743Y-67283030D01*
X143866103Y-67264332D01*
X143802000Y-67258018D01*
X139602000Y-67258018D01*
X139537897Y-67264332D01*
X139476257Y-67283030D01*
X139419450Y-67313394D01*
X139369657Y-67354257D01*
X139328794Y-67404050D01*
X139298430Y-67460857D01*
X139279732Y-67522497D01*
X139273418Y-67586600D01*
X139273418Y-69586600D01*
X139279732Y-69650703D01*
X139298430Y-69712343D01*
X139328794Y-69769150D01*
X139369657Y-69818943D01*
X139419450Y-69859806D01*
X139476257Y-69890170D01*
X139537897Y-69908868D01*
X139602000Y-69915182D01*
X143802000Y-69915182D01*
X143866103Y-69908868D01*
X143927743Y-69890170D01*
X143984550Y-69859806D01*
X143984923Y-69859500D01*
X148818014Y-69859500D01*
X149113314Y-70154800D01*
X134442200Y-70154800D01*
X134442200Y-65138076D01*
X149925000Y-65138076D01*
X149925000Y-65369924D01*
X149970231Y-65597318D01*
X150058956Y-65811519D01*
X150187764Y-66004294D01*
X150351706Y-66168236D01*
X150544481Y-66297044D01*
X150758682Y-66385769D01*
X150986076Y-66431000D01*
X151217924Y-66431000D01*
X151445318Y-66385769D01*
X151659519Y-66297044D01*
X151852294Y-66168236D01*
X152016236Y-66004294D01*
X152145044Y-65811519D01*
X152233769Y-65597318D01*
X152279000Y-65369924D01*
X152279000Y-65138076D01*
X152233769Y-64910682D01*
X152145044Y-64696481D01*
X152016236Y-64503706D01*
X151852294Y-64339764D01*
X151659519Y-64210956D01*
X151445318Y-64122231D01*
X151217924Y-64077000D01*
X150986076Y-64077000D01*
X150758682Y-64122231D01*
X150544481Y-64210956D01*
X150351706Y-64339764D01*
X150187764Y-64503706D01*
X150058956Y-64696481D01*
X149970231Y-64910682D01*
X149925000Y-65138076D01*
X134442200Y-65138076D01*
X134442200Y-61696600D01*
X156260800Y-61696600D01*
X156260800Y-70154800D01*
D37*
G36*
X138239500Y-110451900D02*
G01*
X137845800Y-110451900D01*
X137830934Y-110453364D01*
X137816640Y-110457700D01*
X137803466Y-110464742D01*
X137791918Y-110474218D01*
X137782442Y-110485766D01*
X137775400Y-110498940D01*
X137771064Y-110513234D01*
X137769600Y-110528100D01*
X137769600Y-111100116D01*
X137757697Y-111139355D01*
X137752364Y-111193500D01*
X137752364Y-111911439D01*
X136907436Y-111911843D01*
X136907436Y-111193500D01*
X136902103Y-111139355D01*
X136886310Y-111087292D01*
X136867900Y-111052849D01*
X136867900Y-110515903D01*
X136866436Y-110501037D01*
X136862100Y-110486743D01*
X136855058Y-110473569D01*
X136845582Y-110462021D01*
X136834034Y-110452545D01*
X136820860Y-110445503D01*
X136806566Y-110441167D01*
X136791762Y-110439703D01*
X136245600Y-110439262D01*
X136245600Y-108826300D01*
X138239500Y-108826300D01*
X138239500Y-110451900D01*
G37*
X138239500Y-110451900D02*
X137845800Y-110451900D01*
X137830934Y-110453364D01*
X137816640Y-110457700D01*
X137803466Y-110464742D01*
X137791918Y-110474218D01*
X137782442Y-110485766D01*
X137775400Y-110498940D01*
X137771064Y-110513234D01*
X137769600Y-110528100D01*
X137769600Y-111100116D01*
X137757697Y-111139355D01*
X137752364Y-111193500D01*
X137752364Y-111911439D01*
X136907436Y-111911843D01*
X136907436Y-111193500D01*
X136902103Y-111139355D01*
X136886310Y-111087292D01*
X136867900Y-111052849D01*
X136867900Y-110515903D01*
X136866436Y-110501037D01*
X136862100Y-110486743D01*
X136855058Y-110473569D01*
X136845582Y-110462021D01*
X136834034Y-110452545D01*
X136820860Y-110445503D01*
X136806566Y-110441167D01*
X136791762Y-110439703D01*
X136245600Y-110439262D01*
X136245600Y-108826300D01*
X138239500Y-108826300D01*
X138239500Y-110451900D01*
M02*
