M48
; DRILL file {KiCad (6.0.7)} date Fr 26 Aug 2022 22:18:23 CEST
; FORMAT={-:-/ absolute / inch / decimal}
; #@! TF.CreationDate,2022-08-26T22:18:23+02:00
; #@! TF.GenerationSoftware,Kicad,Pcbnew,(6.0.7)
; #@! TF.FileFunction,Plated,1,2,PTH
FMAT,2
INCH
; #@! TA.AperFunction,Plated,PTH,ViaDrill
T1C0.0157
; #@! TA.AperFunction,Plated,PTH,ViaDrill
T2C0.0315
; #@! TA.AperFunction,Plated,PTH,ComponentDrill
T3C0.0315
; #@! TA.AperFunction,Plated,PTH,ComponentDrill
T4C0.0394
; #@! TA.AperFunction,Plated,PTH,ComponentDrill
T5C0.0429
; #@! TA.AperFunction,Plated,PTH,ComponentDrill
T6C0.0430
; #@! TA.AperFunction,Plated,PTH,ComponentDrill
T7C0.0450
; #@! TA.AperFunction,Plated,PTH,ComponentDrill
T8C0.0630
%
G90
G05
T1
X5.5358Y-5.0874
X5.5683Y-3.2021
X5.6178Y-5.0874
X5.6633Y-4.5804
X5.6691Y-3.9709
X5.6691Y-4.0609
X5.6998Y-5.0874
X5.7591Y-3.8789
X5.7591Y-3.9696
X5.7591Y-4.0602
X5.7591Y-4.1509
X6.1863Y-3.4021
X6.2343Y-4.1716
X6.2733Y-4.1721
X6.2738Y-3.4821
X6.2743Y-3.2626
X6.2743Y-3.3326
X6.2743Y-3.4026
X6.3163Y-4.1721
X6.3163Y-4.2241
T2
X5.8653Y-3.5841
T3
X5.9453Y-3.5831
X5.9453Y-3.6816
T5
X6.1232Y-3.3112
X6.1232Y-3.5112
T6
X6.1232Y-3.6112
X6.1232Y-3.7112
T7
X5.8263Y-3.2671
X5.9243Y-3.2671
X6.0223Y-3.2671
T8
X5.6548Y-4.3462
X5.8568Y-4.3462
X6.0587Y-4.3462
X6.2607Y-4.3462
T4
G00X5.5681Y-3.281
M15
G01X5.5681Y-3.3676
M16
G05
G00X5.7098Y-3.2062
M15
G01X5.7964Y-3.2062
M16
G05
G00X5.7098Y-3.4424
M15
G01X5.7964Y-3.4424
M16
G05
T0
M30
