G04 #@! TF.GenerationSoftware,KiCad,Pcbnew,(6.0.7)*
G04 #@! TF.CreationDate,2022-08-26T23:00:57+02:00*
G04 #@! TF.ProjectId,a1200_pwr,61313230-305f-4707-9772-2e6b69636164,2*
G04 #@! TF.SameCoordinates,Original*
G04 #@! TF.FileFunction,Copper,L1,Top*
G04 #@! TF.FilePolarity,Positive*
%FSLAX46Y46*%
G04 Gerber Fmt 4.6, Leading zero omitted, Abs format (unit mm)*
G04 Created by KiCad (PCBNEW (6.0.7)) date 2022-08-26 23:00:57*
%MOMM*%
%LPD*%
G01*
G04 APERTURE LIST*
G04 #@! TA.AperFunction,SMDPad,CuDef*
%ADD10R,2.000000X1.600000*%
G04 #@! TD*
G04 #@! TA.AperFunction,SMDPad,CuDef*
%ADD11R,1.500000X1.250000*%
G04 #@! TD*
G04 #@! TA.AperFunction,SMDPad,CuDef*
%ADD12R,1.800000X3.500000*%
G04 #@! TD*
G04 #@! TA.AperFunction,ComponentPad*
%ADD13R,4.200000X2.000000*%
G04 #@! TD*
G04 #@! TA.AperFunction,ComponentPad*
%ADD14R,2.000000X4.200000*%
G04 #@! TD*
G04 #@! TA.AperFunction,ComponentPad*
%ADD15C,3.175000*%
G04 #@! TD*
G04 #@! TA.AperFunction,SMDPad,CuDef*
%ADD16R,0.750000X1.200000*%
G04 #@! TD*
G04 #@! TA.AperFunction,ComponentPad*
%ADD17C,2.286000*%
G04 #@! TD*
G04 #@! TA.AperFunction,SMDPad,CuDef*
%ADD18R,0.400000X0.750000*%
G04 #@! TD*
G04 #@! TA.AperFunction,SMDPad,CuDef*
%ADD19R,3.000000X0.800000*%
G04 #@! TD*
G04 #@! TA.AperFunction,SMDPad,CuDef*
%ADD20R,2.200000X3.000000*%
G04 #@! TD*
G04 #@! TA.AperFunction,SMDPad,CuDef*
%ADD21R,1.470000X3.000000*%
G04 #@! TD*
G04 #@! TA.AperFunction,SMDPad,CuDef*
%ADD22R,1.060000X1.060000*%
G04 #@! TD*
G04 #@! TA.AperFunction,SMDPad,CuDef*
%ADD23R,1.200000X0.750000*%
G04 #@! TD*
G04 #@! TA.AperFunction,ComponentPad*
%ADD24R,1.600000X1.600000*%
G04 #@! TD*
G04 #@! TA.AperFunction,ComponentPad*
%ADD25C,1.600000*%
G04 #@! TD*
G04 #@! TA.AperFunction,ComponentPad*
%ADD26C,1.700000*%
G04 #@! TD*
G04 #@! TA.AperFunction,ViaPad*
%ADD27C,0.800000*%
G04 #@! TD*
G04 #@! TA.AperFunction,ViaPad*
%ADD28C,1.200000*%
G04 #@! TD*
G04 #@! TA.AperFunction,Conductor*
%ADD29C,1.270000*%
G04 #@! TD*
G04 #@! TA.AperFunction,Conductor*
%ADD30C,0.508000*%
G04 #@! TD*
G04 #@! TA.AperFunction,Conductor*
%ADD31C,1.905000*%
G04 #@! TD*
G04 #@! TA.AperFunction,Conductor*
%ADD32C,0.250000*%
G04 #@! TD*
G04 #@! TA.AperFunction,Conductor*
%ADD33C,3.000000*%
G04 #@! TD*
G04 #@! TA.AperFunction,Conductor*
%ADD34C,2.800000*%
G04 #@! TD*
G04 #@! TA.AperFunction,Conductor*
%ADD35C,0.254000*%
G04 #@! TD*
G04 APERTURE END LIST*
D10*
X141961783Y-114068605D03*
X145961783Y-114068605D03*
D11*
X141530683Y-120913905D03*
X144030683Y-120913905D03*
D10*
X141961783Y-116367305D03*
X145961783Y-116367305D03*
X141949083Y-118653305D03*
X145949083Y-118653305D03*
D12*
X147517783Y-127008005D03*
X147517783Y-122008005D03*
D13*
X146128883Y-87436955D03*
X146128883Y-81436955D03*
D14*
X141428883Y-84436955D03*
D15*
X143631883Y-110394355D03*
X148761883Y-110394355D03*
X153891883Y-110394355D03*
X159021883Y-110394355D03*
D16*
X144672983Y-124924605D03*
X144672983Y-123024605D03*
D17*
X147987883Y-82985355D03*
X150476883Y-82985355D03*
X152965883Y-82985355D03*
D18*
X143053583Y-122843305D03*
X142453583Y-122843305D03*
X141853583Y-122843305D03*
X141253583Y-122843305D03*
X140653583Y-122843305D03*
X140653583Y-125893305D03*
X141253583Y-125893305D03*
X141853583Y-125893305D03*
X142453583Y-125893305D03*
X143053583Y-125893305D03*
D19*
X141853583Y-124193305D03*
D10*
X145618883Y-90529155D03*
X141618883Y-90529155D03*
X154699883Y-107343955D03*
X158699883Y-107343955D03*
D20*
X139906083Y-93678755D03*
X145706083Y-93678755D03*
D21*
X154386883Y-104414555D03*
X154386883Y-97114555D03*
D16*
X158338183Y-100394555D03*
X158338183Y-98494555D03*
X158363583Y-104509355D03*
X158363583Y-102609355D03*
D22*
X140562883Y-97429955D03*
X142852883Y-97429955D03*
X145142883Y-97429955D03*
X147432883Y-97429955D03*
X149722883Y-97429955D03*
X140562883Y-99719955D03*
X142852883Y-99719955D03*
X145142883Y-99719955D03*
X147432883Y-99719955D03*
X149722883Y-99719955D03*
X140562883Y-102009955D03*
X142852883Y-102009955D03*
X145142883Y-102009955D03*
X147432883Y-102009955D03*
X149722883Y-102009955D03*
X140562883Y-104299955D03*
X142852883Y-104299955D03*
X145142883Y-104299955D03*
X147432883Y-104299955D03*
X149722883Y-104299955D03*
X140562883Y-106589955D03*
X142852883Y-106589955D03*
X145142883Y-106589955D03*
X147432883Y-106589955D03*
X149722883Y-106589955D03*
D23*
X140890883Y-127695705D03*
X142790883Y-127695705D03*
D24*
X151010283Y-91011755D03*
D25*
X151010283Y-93511755D03*
D26*
X155528883Y-89184355D03*
X155528883Y-91724355D03*
X155528883Y-94264355D03*
X155528883Y-84104355D03*
D27*
X159341483Y-105972355D03*
X158350883Y-105959655D03*
X143847483Y-116341905D03*
X159366883Y-84649055D03*
X159366883Y-86427055D03*
X160433683Y-107293155D03*
X160433683Y-105972355D03*
X142691783Y-129219705D03*
X140608983Y-129219705D03*
X146281283Y-98523955D03*
X143995283Y-100860755D03*
X159354183Y-88446355D03*
X146281283Y-100826888D03*
X141434483Y-81334355D03*
X144774583Y-129219705D03*
X146281283Y-103129821D03*
X146281283Y-105432755D03*
X157131683Y-86414355D03*
X159366883Y-82871055D03*
X143995283Y-103146755D03*
D28*
X148978283Y-91037155D03*
D29*
X141949083Y-118653305D02*
X141949083Y-116380005D01*
X146281283Y-98079455D02*
X146281283Y-100835355D01*
X143995283Y-100860755D02*
X143993683Y-100860755D01*
X143822083Y-116367305D02*
X143847483Y-116341905D01*
X143995283Y-103157555D02*
X142852883Y-104299955D01*
X143995283Y-103146755D02*
X143995283Y-100860755D01*
X145142883Y-99719955D02*
X145142883Y-97429955D01*
D30*
X158363583Y-105946955D02*
X158350883Y-105959655D01*
D29*
X142852883Y-104299955D02*
X149722883Y-104299955D01*
X146281283Y-105432755D02*
X146281283Y-106550355D01*
X142852883Y-104299955D02*
X142852883Y-99719955D01*
X145142883Y-97429955D02*
X147432883Y-97429955D01*
X143995283Y-103146755D02*
X146255883Y-103146755D01*
X146281283Y-100835355D02*
X146281283Y-103121355D01*
X144020683Y-100835355D02*
X143995283Y-100860755D01*
D31*
X141618883Y-90529155D02*
X141618883Y-84626955D01*
D29*
X146255883Y-103146755D02*
X146281283Y-103121355D01*
X143993683Y-100860755D02*
X142852883Y-99719955D01*
X143847483Y-116341905D02*
X143847483Y-114589305D01*
X143995283Y-103146755D02*
X143995283Y-103157555D01*
X144355483Y-114081305D02*
X145949083Y-114081305D01*
X142852883Y-102009955D02*
X147432883Y-102009955D01*
X143847483Y-114589305D02*
X144355483Y-114081305D01*
D30*
X158363583Y-104509355D02*
X158363583Y-105946955D01*
D29*
X145142883Y-104299955D02*
X145142883Y-99719955D01*
X141961783Y-116367305D02*
X143822083Y-116367305D01*
X146281283Y-100835355D02*
X144020683Y-100835355D01*
X147432883Y-106589955D02*
X146306683Y-106575755D01*
X146281283Y-103121355D02*
X146281283Y-105432755D01*
X140562883Y-99719955D02*
X147432883Y-99719955D01*
X146281283Y-106550355D02*
X146306683Y-106575755D01*
X145142883Y-106589955D02*
X145142883Y-104299955D01*
X145949083Y-114081305D02*
X145961783Y-114068605D01*
X141949083Y-116380005D02*
X141961783Y-116367305D01*
X147432883Y-97429955D02*
X147432883Y-106589955D01*
D32*
X141618883Y-84626955D02*
X141428883Y-84436955D01*
D29*
X146293983Y-98066755D02*
X146281283Y-98079455D01*
X146306683Y-106575755D02*
X145142883Y-106589955D01*
X139643783Y-120545605D02*
X140012083Y-120913905D01*
D31*
X149003683Y-91011755D02*
X148978283Y-91037155D01*
X145618883Y-90529155D02*
X145618883Y-93591555D01*
D29*
X139643783Y-114589305D02*
X139643783Y-120545605D01*
D31*
X155528883Y-91724355D02*
X153907283Y-91724355D01*
D29*
X141974483Y-114055905D02*
X141961783Y-114068605D01*
X141961783Y-114068605D02*
X141961783Y-112064455D01*
D31*
X148470283Y-90529155D02*
X148978283Y-91037155D01*
X145618883Y-93591555D02*
X145706083Y-93678755D01*
X153907283Y-91724355D02*
X153194683Y-91011755D01*
X145618883Y-90529155D02*
X148470283Y-90529155D01*
D29*
X139643783Y-120545605D02*
X140024783Y-120926605D01*
X141961783Y-114068605D02*
X140164483Y-114068605D01*
X141961783Y-112064455D02*
X143631883Y-110394355D01*
D31*
X151010283Y-91011755D02*
X149003683Y-91011755D01*
D29*
X140012083Y-120913905D02*
X141530683Y-120913905D01*
D31*
X153194683Y-91011755D02*
X151010283Y-91011755D01*
D29*
X140164483Y-114068605D02*
X139643783Y-114589305D01*
X147517783Y-120412255D02*
X148761883Y-119168155D01*
X147517783Y-122008005D02*
X147517783Y-120412255D01*
X147517783Y-122008005D02*
X147837583Y-122008005D01*
X148927483Y-110559955D02*
X148761883Y-110394355D01*
X148761883Y-119168155D02*
X148761883Y-110394355D01*
D33*
X153891883Y-110544355D02*
X154041883Y-110394355D01*
D34*
X154528183Y-104555855D02*
X154386883Y-104414555D01*
D33*
X154041883Y-110394355D02*
X154041883Y-108058855D01*
D34*
X154528183Y-107572555D02*
X154528183Y-104555855D01*
D35*
X144672983Y-126667605D02*
X144672983Y-125778605D01*
X142790883Y-127695705D02*
X143644883Y-127695705D01*
X143644883Y-127695705D02*
X144672983Y-126667605D01*
X142790883Y-127695705D02*
X142426983Y-127695705D01*
X144672983Y-125778605D02*
X144672983Y-124924605D01*
X142426983Y-127695705D02*
X141253583Y-126522305D01*
X141253583Y-126522305D02*
X141253583Y-125893305D01*
D31*
X139808883Y-93775955D02*
X139808883Y-95761555D01*
X139808883Y-95761555D02*
X140562883Y-96515555D01*
X142852883Y-97429955D02*
X140562883Y-97429955D01*
X139906083Y-93678755D02*
X139808883Y-93775955D01*
X140562883Y-96515555D02*
X140562883Y-97429955D01*
D30*
X152762883Y-101527355D02*
X157281583Y-101527355D01*
X157281583Y-101527355D02*
X158363583Y-102609355D01*
X158338183Y-100394555D02*
X158338183Y-102583955D01*
X149924683Y-106589955D02*
X151873883Y-104640755D01*
X158338183Y-102583955D02*
X158363583Y-102609355D01*
X149722883Y-106589955D02*
X149924683Y-106589955D01*
X151873883Y-104640755D02*
X151873883Y-102416355D01*
X151873883Y-102416355D02*
X152762883Y-101527355D01*
D31*
X153774883Y-87430355D02*
X145935483Y-87430355D01*
X155528883Y-89184355D02*
X153774883Y-87430355D01*
X145935483Y-87430355D02*
X145928883Y-87436955D01*
X149722883Y-97429955D02*
X149722883Y-102009955D01*
D30*
X154386883Y-97114555D02*
X155275883Y-98003555D01*
X155275883Y-98003555D02*
X157847183Y-98003555D01*
X157847183Y-98003555D02*
X158338183Y-98494555D01*
G04 #@! TA.AperFunction,Conductor*
G36*
X142512521Y-120042498D02*
G01*
X142538241Y-120087047D01*
X142539383Y-120100105D01*
X142539383Y-121727705D01*
X142521790Y-121776043D01*
X142477241Y-121801763D01*
X142464183Y-121802905D01*
X142069483Y-121802905D01*
X142069483Y-122367383D01*
X142065077Y-122389533D01*
X142064716Y-122390074D01*
X142053083Y-122448557D01*
X142053083Y-123187244D01*
X142035490Y-123235582D01*
X141990941Y-123261302D01*
X141977923Y-123262444D01*
X141129318Y-123262849D01*
X141080973Y-123245279D01*
X141055232Y-123200743D01*
X141054083Y-123187649D01*
X141054083Y-122448557D01*
X141042450Y-122390074D01*
X141028056Y-122368533D01*
X141015383Y-122326755D01*
X141015383Y-121790708D01*
X140468221Y-121790266D01*
X140419899Y-121772633D01*
X140394215Y-121728065D01*
X140393083Y-121715066D01*
X140393083Y-120100105D01*
X140410676Y-120051767D01*
X140455225Y-120026047D01*
X140468283Y-120024905D01*
X142464183Y-120024905D01*
X142512521Y-120042498D01*
G37*
G04 #@! TD.AperFunction*
G04 #@! TA.AperFunction,Conductor*
G36*
X160756804Y-80439957D02*
G01*
X160803297Y-80493613D01*
X160814683Y-80545955D01*
X160814683Y-89006155D01*
X160794681Y-89074276D01*
X160741025Y-89120769D01*
X160688683Y-89132155D01*
X156795802Y-89132155D01*
X156727681Y-89112153D01*
X156681188Y-89058497D01*
X156670675Y-89020965D01*
X156662198Y-88949343D01*
X156661519Y-88943606D01*
X156598680Y-88741231D01*
X156539234Y-88628243D01*
X156502706Y-88558814D01*
X156502704Y-88558812D01*
X156500013Y-88553696D01*
X156423550Y-88456703D01*
X156395055Y-88420557D01*
X156395053Y-88420554D01*
X156392752Y-88417636D01*
X154620685Y-86645569D01*
X154615048Y-86639552D01*
X154575763Y-86594756D01*
X154571956Y-86590415D01*
X154567420Y-86586839D01*
X154501890Y-86535179D01*
X154499327Y-86533103D01*
X154435188Y-86479759D01*
X154435184Y-86479756D01*
X154430747Y-86476066D01*
X154425713Y-86473247D01*
X154423301Y-86471589D01*
X154412606Y-86464443D01*
X154410082Y-86462804D01*
X154405542Y-86459225D01*
X154326627Y-86417706D01*
X154323732Y-86416134D01*
X154250908Y-86375351D01*
X154250903Y-86375349D01*
X154245859Y-86372524D01*
X154240387Y-86370667D01*
X154237652Y-86369449D01*
X154225844Y-86364376D01*
X154223114Y-86363245D01*
X154218007Y-86360558D01*
X154212496Y-86358847D01*
X154212494Y-86358846D01*
X154132807Y-86334103D01*
X154129669Y-86333083D01*
X154050673Y-86306267D01*
X154050671Y-86306267D01*
X154045199Y-86304409D01*
X154039474Y-86303579D01*
X154036629Y-86302896D01*
X154024067Y-86300053D01*
X154021154Y-86299434D01*
X154015632Y-86297719D01*
X154009897Y-86297040D01*
X154009896Y-86297040D01*
X153960573Y-86291203D01*
X153927035Y-86287233D01*
X153923775Y-86286804D01*
X153908260Y-86284554D01*
X153841198Y-86274830D01*
X153841194Y-86274830D01*
X153835485Y-86274002D01*
X153752610Y-86277258D01*
X153747664Y-86277355D01*
X148389136Y-86277355D01*
X148329137Y-86259155D01*
X148328898Y-86259732D01*
X148323037Y-86257304D01*
X148319136Y-86256121D01*
X148307114Y-86248088D01*
X148248631Y-86236455D01*
X144009135Y-86236455D01*
X144003067Y-86237662D01*
X143962822Y-86245667D01*
X143962821Y-86245667D01*
X143950652Y-86248088D01*
X143940336Y-86254981D01*
X143934089Y-86259155D01*
X143884331Y-86292403D01*
X143840016Y-86358724D01*
X143837595Y-86370893D01*
X143837595Y-86370894D01*
X143829590Y-86411139D01*
X143828383Y-86417207D01*
X143828383Y-88456703D01*
X143840016Y-88515186D01*
X143884331Y-88581507D01*
X143950652Y-88625822D01*
X143962821Y-88628243D01*
X143962822Y-88628243D01*
X144003067Y-88636248D01*
X144009135Y-88637455D01*
X148248631Y-88637455D01*
X148307114Y-88625822D01*
X148338890Y-88604589D01*
X148408891Y-88583355D01*
X153245105Y-88583355D01*
X153313226Y-88603357D01*
X153334200Y-88620260D01*
X153631000Y-88917060D01*
X153665026Y-88979372D01*
X153659961Y-89050187D01*
X153617414Y-89107023D01*
X153550894Y-89131834D01*
X153541905Y-89132155D01*
X138868083Y-89132155D01*
X138799962Y-89112153D01*
X138753469Y-89058497D01*
X138742083Y-89006155D01*
X138742083Y-84089617D01*
X154473403Y-84089617D01*
X154490642Y-84294908D01*
X154547427Y-84492941D01*
X154550242Y-84498418D01*
X154550243Y-84498421D01*
X154571130Y-84539062D01*
X154641595Y-84676173D01*
X154769560Y-84837625D01*
X154926447Y-84971146D01*
X155106281Y-85071652D01*
X155201121Y-85102468D01*
X155296354Y-85133411D01*
X155296358Y-85133412D01*
X155302212Y-85135314D01*
X155506777Y-85159706D01*
X155512912Y-85159234D01*
X155512914Y-85159234D01*
X155568922Y-85154924D01*
X155712183Y-85143901D01*
X155718113Y-85142245D01*
X155718115Y-85142245D01*
X155904680Y-85090155D01*
X155904679Y-85090155D01*
X155910608Y-85088500D01*
X155916097Y-85085727D01*
X155916103Y-85085725D01*
X156088999Y-84998388D01*
X156094493Y-84995613D01*
X156256834Y-84868779D01*
X156391447Y-84712827D01*
X156412270Y-84676173D01*
X156490159Y-84539062D01*
X156493206Y-84533699D01*
X156558234Y-84338218D01*
X156584054Y-84133829D01*
X156584466Y-84104355D01*
X156564363Y-83899325D01*
X156504818Y-83702104D01*
X156408101Y-83520204D01*
X156334742Y-83430257D01*
X156281789Y-83365330D01*
X156281786Y-83365327D01*
X156277894Y-83360555D01*
X156260669Y-83346305D01*
X156123908Y-83233166D01*
X156123904Y-83233164D01*
X156119158Y-83229237D01*
X155937938Y-83131252D01*
X155741137Y-83070332D01*
X155735012Y-83069688D01*
X155735011Y-83069688D01*
X155542381Y-83049442D01*
X155542379Y-83049442D01*
X155536252Y-83048798D01*
X155449412Y-83056701D01*
X155337225Y-83066910D01*
X155337222Y-83066911D01*
X155331086Y-83067469D01*
X155133455Y-83125635D01*
X154950885Y-83221081D01*
X154946084Y-83224941D01*
X154946081Y-83224943D01*
X154935854Y-83233166D01*
X154790330Y-83350170D01*
X154657907Y-83507985D01*
X154654939Y-83513383D01*
X154654936Y-83513388D01*
X154648198Y-83525645D01*
X154558659Y-83688517D01*
X154496367Y-83884887D01*
X154495681Y-83891004D01*
X154495680Y-83891008D01*
X154474090Y-84083492D01*
X154473403Y-84089617D01*
X138742083Y-84089617D01*
X138742083Y-80545955D01*
X138762085Y-80477834D01*
X138815741Y-80431341D01*
X138868083Y-80419955D01*
X160688683Y-80419955D01*
X160756804Y-80439957D01*
G37*
G04 #@! TD.AperFunction*
G04 #@! TA.AperFunction,Conductor*
G36*
X148806104Y-124782007D02*
G01*
X148852597Y-124835663D01*
X148863983Y-124888005D01*
X148863983Y-129772655D01*
X148843981Y-129840776D01*
X148790325Y-129887269D01*
X148737983Y-129898655D01*
X139845983Y-129898655D01*
X139777862Y-129878653D01*
X139731369Y-129824997D01*
X139719983Y-129772655D01*
X139719983Y-125345205D01*
X139739985Y-125277084D01*
X139793641Y-125230591D01*
X139845983Y-125219205D01*
X140775083Y-125219205D01*
X140843204Y-125239207D01*
X140889697Y-125292863D01*
X140901083Y-125345205D01*
X140901083Y-125347425D01*
X140879847Y-125417428D01*
X140871611Y-125429754D01*
X140871610Y-125429757D01*
X140864716Y-125440074D01*
X140853083Y-125498557D01*
X140853083Y-126288053D01*
X140864716Y-126346536D01*
X140871610Y-126356853D01*
X140871611Y-126356856D01*
X140879847Y-126369182D01*
X140901083Y-126439185D01*
X140901083Y-126794005D01*
X141009938Y-126794005D01*
X141078059Y-126814007D01*
X141099034Y-126830910D01*
X141740479Y-127472356D01*
X141774504Y-127534668D01*
X141777383Y-127561451D01*
X141777383Y-128483105D01*
X146019183Y-128483105D01*
X146019183Y-124888005D01*
X146039185Y-124819884D01*
X146092841Y-124773391D01*
X146145183Y-124762005D01*
X148737983Y-124762005D01*
X148806104Y-124782007D01*
G37*
G04 #@! TD.AperFunction*
G04 #@! TA.AperFunction,Conductor*
G36*
X148945568Y-115339686D02*
G01*
X148992180Y-115393239D01*
X149003683Y-115445835D01*
X149003683Y-123835905D01*
X148983681Y-123904026D01*
X148930025Y-123950519D01*
X148877683Y-123961905D01*
X143910983Y-123961905D01*
X143910983Y-124775705D01*
X143890981Y-124843826D01*
X143837325Y-124890319D01*
X143784983Y-124901705D01*
X140266149Y-124901705D01*
X140198028Y-124881703D01*
X140151535Y-124828047D01*
X140140149Y-124775972D01*
X140138302Y-123904026D01*
X140138019Y-123770693D01*
X140157877Y-123702532D01*
X140211434Y-123655926D01*
X140264018Y-123644428D01*
X141426462Y-123644417D01*
X142793383Y-123644405D01*
X142793383Y-123408192D01*
X142814618Y-123338190D01*
X142835556Y-123306855D01*
X142835558Y-123306851D01*
X142842450Y-123296536D01*
X142854083Y-123238053D01*
X142854083Y-122448557D01*
X142842450Y-122390074D01*
X142835558Y-122379759D01*
X142835556Y-122379755D01*
X142814618Y-122348420D01*
X142793383Y-122278418D01*
X142793383Y-122030505D01*
X142813385Y-121962384D01*
X142867041Y-121915891D01*
X142919383Y-121904505D01*
X143034683Y-121904505D01*
X143034683Y-120125505D01*
X143054685Y-120057384D01*
X143108341Y-120010891D01*
X143160683Y-119999505D01*
X144711083Y-119999505D01*
X144711083Y-115454801D01*
X144731085Y-115386680D01*
X144784741Y-115340187D01*
X144836803Y-115328801D01*
X148877404Y-115319835D01*
X148945568Y-115339686D01*
G37*
G04 #@! TD.AperFunction*
G04 #@! TA.AperFunction,Conductor*
G36*
X148049521Y-96717802D02*
G01*
X148096014Y-96771458D01*
X148107400Y-96823800D01*
X148107400Y-103606600D01*
X150267400Y-103606600D01*
X150335521Y-103626602D01*
X150382014Y-103680258D01*
X150393400Y-103732600D01*
X150393400Y-104877600D01*
X150373398Y-104945721D01*
X150319742Y-104992214D01*
X150267400Y-105003600D01*
X148107400Y-105003600D01*
X148107400Y-107138200D01*
X148087398Y-107206321D01*
X148033742Y-107252814D01*
X147981400Y-107264200D01*
X144550400Y-107264200D01*
X144482279Y-107244198D01*
X144435786Y-107190542D01*
X144424400Y-107138200D01*
X144424400Y-104978200D01*
X142289800Y-104978200D01*
X142221679Y-104958198D01*
X142175186Y-104904542D01*
X142163800Y-104852200D01*
X142163800Y-100431600D01*
X139978400Y-100431600D01*
X139910279Y-100411598D01*
X139863786Y-100357942D01*
X139852400Y-100305600D01*
X139852400Y-99135200D01*
X139872402Y-99067079D01*
X139926058Y-99020586D01*
X139978400Y-99009200D01*
X144399000Y-99009200D01*
X144399000Y-96823800D01*
X144419002Y-96755679D01*
X144472658Y-96709186D01*
X144525000Y-96697800D01*
X147981400Y-96697800D01*
X148049521Y-96717802D01*
G37*
G04 #@! TD.AperFunction*
G04 #@! TA.AperFunction,Conductor*
G36*
X160960004Y-103757157D02*
G01*
X161006497Y-103810813D01*
X161017883Y-103863155D01*
X161017883Y-112094755D01*
X160997881Y-112162876D01*
X160944225Y-112209369D01*
X160891883Y-112220755D01*
X157181483Y-112220755D01*
X157113362Y-112200753D01*
X157066869Y-112147097D01*
X157055483Y-112094755D01*
X157055483Y-103863155D01*
X157075485Y-103795034D01*
X157129141Y-103748541D01*
X157181483Y-103737155D01*
X160891883Y-103737155D01*
X160960004Y-103757157D01*
G37*
G04 #@! TD.AperFunction*
G04 #@! TA.AperFunction,Conductor*
G36*
X157099204Y-95349757D02*
G01*
X157145697Y-95403413D01*
X157157083Y-95455755D01*
X157157083Y-100359955D01*
X157137081Y-100428076D01*
X157083425Y-100474569D01*
X157031083Y-100485955D01*
X151035683Y-100485955D01*
X151035683Y-102849155D01*
X151015681Y-102917276D01*
X150962025Y-102963769D01*
X150909683Y-102975155D01*
X148824883Y-102975155D01*
X148756762Y-102955153D01*
X148710269Y-102901497D01*
X148698883Y-102849155D01*
X148698883Y-95455755D01*
X148718885Y-95387634D01*
X148772541Y-95341141D01*
X148824883Y-95329755D01*
X157031083Y-95329755D01*
X157099204Y-95349757D01*
G37*
G04 #@! TD.AperFunction*
G04 #@! TA.AperFunction,Conductor*
G36*
X156337204Y-102563357D02*
G01*
X156383697Y-102617013D01*
X156395083Y-102669355D01*
X156395083Y-108410755D01*
X156400402Y-108410755D01*
X156407967Y-108436520D01*
X156415378Y-108448050D01*
X156420483Y-108483553D01*
X156420483Y-112094755D01*
X156400481Y-112162876D01*
X156346825Y-112209369D01*
X156294483Y-112220755D01*
X151720483Y-112220755D01*
X151652362Y-112200753D01*
X151605869Y-112147097D01*
X151594483Y-112094755D01*
X151594483Y-106733355D01*
X151614485Y-106665234D01*
X151668141Y-106618741D01*
X151720483Y-106607355D01*
X152585083Y-106607355D01*
X152585083Y-102669355D01*
X152605085Y-102601234D01*
X152658741Y-102554741D01*
X152711083Y-102543355D01*
X156269083Y-102543355D01*
X156337204Y-102563357D01*
G37*
G04 #@! TD.AperFunction*
M02*
